<?xml version="1.0" standalone="no"?>
<!DOCTYPE svg PUBLIC "-//W3C//DTD SVG 20010904//EN"
 "http://www.w3.org/TR/2001/REC-SVG-20010904/DTD/svg10.dtd">
<svg version="1.0" xmlns="http://www.w3.org/2000/svg"
 width="520.000000pt" height="480.000000pt" viewBox="0 0 520.000000 480.000000"
 preserveAspectRatio="xMidYMid meet">

<g transform="translate(0.000000,480.000000) scale(0.100000,-0.100000)"
fill="#000000" stroke="none">
<path d="M4690 4465 c-312 -58 -863 -152 -1145 -195 -77 -12 -261 -41 -410
-65 -148 -24 -362 -58 -475 -75 -113 -18 -297 -48 -410 -67 -113 -19 -261 -43
-330 -53 -69 -11 -197 -33 -285 -49 -88 -16 -198 -35 -245 -41 -129 -16 -188
-30 -193 -44 -3 -6 -5 -327 -6 -711 -1 -545 2 -701 12 -707 9 -6 9 -8 0 -8
-18 0 -18 -899 0 -906 7 -2 125 18 263 46 137 28 292 59 344 70 52 10 160 33
240 50 80 17 177 37 215 44 39 7 174 34 300 60 212 44 515 99 610 112 22 3
105 16 185 30 80 14 195 34 255 44 61 10 160 28 220 40 61 11 148 28 195 36
47 9 141 27 210 41 69 14 134 27 145 28 11 2 42 6 69 10 l49 8 -7 -44 c-16
-95 -27 -179 -36 -284 -6 -60 -17 -176 -25 -258 -15 -145 -12 -187 15 -187 6
0 10 -38 10 -87 1 -105 12 -162 38 -183 22 -18 36 -148 52 -497 5 -114 17
-266 26 -336 20 -152 32 -133 -121 -203 -43 -20 -62 -49 -44 -70 9 -10 38 -14
119 -14 121 0 220 20 251 51 15 15 24 17 33 10 13 -11 120 12 143 30 22 18 24
86 14 350 -6 145 -13 378 -16 517 l-5 252 25 12 c26 12 42 48 30 67 -3 6 0 8
8 5 20 -7 28 8 32 59 2 23 9 60 14 82 13 48 13 482 1 510 -8 18 -9 18 -10 -5
-1 -14 -8 9 -15 50 -24 140 -80 252 -159 322 l-26 23 -5 310 c-3 171 -6 347
-6 393 0 75 -9 102 -22 70 -3 -8 -6 -6 -6 5 -1 9 6 17 14 17 8 0 15 4 15 9 0
5 -10 7 -22 5 l-23 -5 23 12 c22 12 23 17 20 108 -2 69 -6 95 -15 94 -7 -2
-10 4 -6 13 4 10 8 12 13 5 3 -6 7 15 7 46 1 32 -1 52 -4 46 -8 -22 -23 -14
-23 12 0 15 6 25 15 25 12 0 14 35 15 238 0 130 3 346 6 480 5 185 3 246 -6
257 -7 8 -15 15 -19 14 -3 0 -62 -11 -131 -24z m17 -361 c-3 -3 -12 -4 -19 -1
-8 3 -5 6 6 6 11 1 17 -2 13 -5z m-793 -13 c4 -5 -3 -7 -14 -4 -23 6 -26 13
-6 13 8 0 17 -4 20 -9z m-849 -10 c3 -5 1 -12 -5 -16 -5 -3 -10 1 -10 9 0 18
6 21 15 7z m1372 -23 c-3 -7 -5 -2 -5 12 0 14 2 19 5 13 2 -7 2 -19 0 -25z
m-307 7 c7 -9 8 -15 2 -15 -5 0 -12 7 -16 15 -3 8 -4 15 -2 15 2 0 9 -7 16
-15z m187 -8 c0 -8 -6 -14 -14 -14 -14 0 -17 10 -6 20 10 11 20 8 20 -6z
m-347 -7 c0 -5 -7 -7 -15 -4 -8 4 -15 8 -15 10 0 2 7 4 15 4 8 0 15 -4 15 -10z
m-75 -10 c3 -5 1 -10 -4 -10 -6 0 -11 5 -11 10 0 6 2 10 4 10 3 0 8 -4 11 -10z
m255 -9 c0 -6 -4 -13 -10 -16 -5 -3 -10 1 -10 9 0 9 5 16 10 16 6 0 10 -4 10
-9z m-830 -22 c0 -6 -4 -7 -10 -4 -5 3 -10 11 -10 16 0 6 5 7 10 4 6 -3 10
-11 10 -16z m870 -8 c-6 -12 -16 -19 -21 -15 -6 4 -4 13 7 25 21 24 29 18 14
-10z m60 -12 c0 -6 -4 -7 -10 -4 -5 3 -10 11 -10 16 0 6 5 7 10 4 6 -3 10 -11
10 -16z m-215 1 c3 -6 -1 -7 -9 -4 -16 6 -21 -10 -16 -46 1 -11 -1 -12 -10 -4
-14 14 -2 64 15 64 8 0 17 -4 20 -10z m-515 -4 c0 -3 -4 -8 -10 -11 -5 -3 -10
-1 -10 4 0 6 5 11 10 11 6 0 10 -2 10 -4z m755 -5 c3 -5 1 -12 -5 -16 -5 -3
-10 1 -10 9 0 18 6 21 15 7z m-453 -23 c-7 -7 -12 -8 -12 -2 0 6 3 14 7 17 3
4 9 5 12 2 2 -3 -1 -11 -7 -17z m546 -5 c2 -22 0 -23 -13 -9 -18 18 -19 33 -2
33 7 0 14 -11 15 -24z m-1817 -6 c-10 -9 -11 -8 -5 6 3 10 9 15 12 12 3 -3 0
-11 -7 -18z m657 -2 c-3 -3 -9 2 -12 12 -6 14 -5 15 5 6 7 -7 10 -15 7 -18z
m-279 -6 c-16 -10 -23 -4 -14 10 3 6 11 8 17 5 6 -4 5 -9 -3 -15z m129 2 c27
-23 27 -27 2 -34 -25 -6 -26 -25 -2 -34 9 -4 23 -14 29 -22 11 -14 14 -14 23
-1 5 8 10 12 11 8 6 -35 21 -58 31 -52 7 4 6 9 -1 14 -9 5 -8 10 3 20 13 10
17 10 22 -3 4 -10 15 -14 35 -10 30 4 40 -10 14 -21 -8 -3 -15 -14 -15 -24 0
-11 7 -25 15 -32 9 -8 15 -9 15 -2 0 6 -4 14 -10 17 -5 3 -10 13 -10 21 0 8 5
12 10 9 6 -3 11 -3 11 2 8 57 7 60 -14 58 -30 -3 -39 16 -20 37 20 22 33 23
33 3 0 -8 -8 -15 -17 -15 -15 0 -16 -2 -3 -10 11 -7 18 -5 27 6 13 18 26 3 17
-20 -3 -9 -1 -16 5 -16 6 0 11 7 11 15 0 20 26 19 34 -1 8 -22 26 -8 26 21 0
27 15 41 26 24 3 -6 1 -15 -6 -19 -7 -5 -10 -15 -6 -25 5 -13 9 -15 20 -6 10
9 15 8 20 -4 10 -27 23 -16 23 20 0 25 -5 35 -16 35 -11 0 -10 3 4 14 23 16
37 11 34 -12 -3 -37 2 -63 11 -57 6 3 10 1 10 -6 0 -11 2 -11 13 0 10 10 9 14
-5 22 -19 10 -24 45 -10 66 4 7 13 9 21 4 7 -5 11 -13 7 -19 -11 -18 5 -43 24
-37 20 7 35 -9 24 -26 -4 -8 -8 -8 -13 0 -4 6 -11 3 -19 -9 -9 -15 -9 -22 3
-34 28 -27 14 -50 -14 -23 -11 10 -11 8 -2 -11 7 -12 9 -27 5 -33 -4 -7 1 -10
12 -7 10 2 24 14 30 26 17 35 34 50 28 25 -4 -13 0 -23 11 -27 14 -5 16 -2 12
13 -3 11 0 22 5 23 6 2 -3 10 -18 17 -16 7 -26 9 -22 5 4 -4 3 -13 -3 -21 -10
-11 -14 -10 -25 4 -18 23 -18 36 0 30 9 -4 16 3 20 16 3 12 8 18 12 14 4 -4
14 -1 22 6 10 7 13 8 9 1 -4 -7 0 -17 8 -24 13 -10 15 -9 15 11 0 13 4 20 8
14 8 -12 37 -13 48 -3 4 4 13 0 20 -10 18 -23 17 -37 -1 -22 -12 10 -15 10
-15 -1 -1 -11 -3 -10 -13 2 -13 17 -37 14 -37 -5 0 -7 9 -22 20 -34 19 -20 19
-22 3 -31 -10 -5 -15 -13 -11 -17 12 -12 40 18 35 38 -3 10 -1 16 4 12 5 -3 9
1 10 8 0 9 2 10 5 1 3 -7 0 -21 -5 -32 -7 -13 -8 -22 -1 -26 5 -3 10 -11 10
-16 0 -6 -4 -7 -10 -4 -5 3 -10 0 -10 -8 0 -8 -9 -17 -21 -20 -14 -4 -18 -10
-13 -18 5 -9 2 -10 -9 -6 -11 4 -14 2 -10 -9 3 -7 9 -14 15 -14 13 0 38 26 38
39 0 13 2 14 36 1 15 -6 24 -13 20 -17 -3 -3 1 -14 10 -24 19 -21 1 -37 -21
-19 -11 9 -15 9 -15 1 0 -6 3 -12 8 -12 70 -11 74 -2 26 58 -31 38 -48 89 -34
98 5 3 6 13 3 24 -2 10 3 26 12 35 21 20 33 13 15 -9 -11 -13 -10 -18 6 -30
18 -13 18 -14 2 -20 -24 -10 -23 -20 3 -22 12 -1 23 6 28 19 5 15 10 18 15 9
11 -17 -24 -53 -46 -48 -10 3 -18 1 -18 -4 0 -5 7 -9 17 -9 9 0 13 -3 10 -7
-4 -3 2 -13 14 -21 16 -11 24 -11 32 -3 9 9 6 13 -11 17 -21 6 -31 24 -13 24
20 0 42 32 35 52 -4 15 -3 18 6 13 8 -5 11 -4 7 3 -4 5 -15 8 -25 5 -12 -3
-18 2 -19 16 -1 12 2 21 7 21 5 0 12 9 15 20 4 14 15 20 33 19 l27 -1 -27 -10
c-39 -14 -35 -24 10 -23 33 0 37 3 37 27 1 31 0 30 39 46 25 11 28 11 22 -3
-3 -9 -1 -26 5 -38 9 -16 9 -22 0 -25 -6 -2 -9 -8 -5 -13 3 -5 0 -9 -7 -9 -7
0 -2 -9 11 -20 26 -22 40 -26 40 -9 0 5 -4 7 -10 4 -5 -3 -10 0 -10 8 0 8 9
17 19 20 15 4 20 -2 26 -30 8 -45 -2 -76 -22 -68 -14 5 -14 3 -2 -12 13 -15
12 -16 -8 -11 -13 4 -21 1 -19 -6 2 -6 1 -8 -1 -3 -3 4 -9 5 -14 2 -5 -4 -6 1
-3 9 5 13 0 14 -36 6 -3 0 6 -10 19 -20 13 -11 17 -20 10 -20 -7 0 -21 7 -31
16 -16 16 -18 16 -24 0 -4 -9 -17 -16 -34 -16 -16 0 -32 -5 -36 -11 -4 -8 0
-9 15 -4 15 5 21 2 21 -9 0 -9 7 -16 15 -16 8 0 14 5 12 12 -1 6 10 13 24 14
22 2 26 -1 22 -17 -3 -10 -9 -16 -14 -13 -5 3 -9 -1 -9 -8 0 -7 12 -18 26 -25
21 -10 24 -10 14 2 -7 8 -9 19 -5 25 9 15 25 12 19 -4 -6 -15 22 -30 38 -20 6
4 5 -3 -1 -15 -7 -12 -8 -21 -2 -21 5 0 11 5 13 10 2 7 15 7 38 0 23 -7 36 -7
38 0 2 5 11 3 19 -6 17 -16 40 -13 36 5 -2 6 2 11 8 11 7 0 9 10 5 26 -5 20
-4 24 6 17 25 -15 77 -11 94 8 19 21 34 25 34 8 0 -5 -6 -7 -12 -3 -9 5 -8 2
1 -9 12 -15 12 -19 -5 -32 -10 -8 -14 -15 -7 -15 6 0 15 5 18 10 9 15 25 12
25 -4 0 -8 -12 -17 -27 -22 -21 -5 -24 -8 -10 -11 9 -3 17 -10 17 -18 0 -8 -7
-11 -20 -8 -24 7 -34 -15 -22 -48 9 -22 7 -24 -27 -26 -20 -1 -29 1 -21 4 22
9 31 26 17 35 -9 6 -9 10 1 17 11 7 11 9 0 14 -9 3 -14 -3 -15 -16 -2 -22 -23
-49 -23 -29 0 7 -4 12 -10 12 -5 0 -10 -7 -10 -15 0 -17 30 -35 59 -35 15 0
21 -6 21 -21 0 -12 5 -19 13 -17 14 5 19 85 6 94 -11 6 -2 24 11 24 5 0 7 -7
4 -15 -4 -8 -1 -15 5 -15 6 0 11 6 11 14 0 20 26 27 72 19 l41 -6 -24 32 c-20
27 -21 33 -9 41 8 5 11 10 5 10 -5 0 -4 5 2 11 6 6 9 18 5 27 -4 12 -1 14 12
9 14 -5 17 -3 12 8 -4 10 1 15 16 15 16 0 18 -3 9 -13 -6 -8 -7 -18 -3 -22 4
-5 2 -5 -5 -1 -13 7 -48 -55 -35 -63 5 -3 13 -20 19 -36 9 -28 8 -31 -10 -32
-11 -1 -24 -8 -29 -15 -8 -10 -11 -10 -15 0 -6 16 -23 5 -23 -16 0 -31 16 -45
36 -33 17 9 17 10 2 11 -20 0 -25 19 -5 22 6 0 17 2 22 2 6 1 20 7 33 14 16 9
27 10 42 2 11 -6 20 -13 20 -16 0 -3 -4 -2 -10 1 -5 3 -10 -1 -10 -10 0 -13
-4 -14 -21 -4 -15 8 -24 8 -32 0 -8 -8 -6 -11 7 -11 11 0 16 -6 14 -17 -2 -10
-11 -18 -20 -18 -24 0 -35 -15 -19 -24 20 -13 -1 -20 -28 -10 -18 7 -21 12
-12 23 9 11 8 15 -5 20 -13 5 -15 1 -12 -17 3 -17 -2 -28 -15 -37 -15 -9 -17
-14 -7 -20 19 -12 40 -1 34 18 -5 15 -4 15 6 0 6 -10 17 -18 24 -18 17 0 31
-33 17 -38 -6 -2 -11 -8 -11 -14 0 -6 7 -7 16 -4 8 3 12 2 9 -4 -3 -5 4 -14
15 -20 21 -11 27 -1 9 17 -7 7 -6 12 4 16 9 3 14 -1 13 -11 -1 -12 6 -16 22
-14 15 2 22 -2 22 -12 0 -9 5 -16 12 -16 6 0 9 -2 7 -5 -3 -2 -20 -1 -37 4
-20 6 -34 6 -38 0 -3 -6 -17 -15 -31 -20 -20 -7 -23 -12 -14 -23 8 -10 9 -16
1 -21 -5 -3 -10 -1 -10 4 0 6 -5 11 -11 11 -5 0 -7 -5 -3 -12 23 -37 7 -90
-29 -96 -15 -3 -17 0 -8 17 14 24 14 54 2 46 -6 -3 -13 10 -17 30 -3 19 -10
37 -14 40 -4 2 -5 -7 -2 -22 3 -18 1 -24 -7 -19 -21 13 -11 -6 15 -31 20 -19
24 -27 15 -36 -9 -9 -14 -8 -21 3 -8 13 -10 12 -10 -3 0 -10 7 -20 15 -23 8
-4 16 -16 16 -28 1 -16 2 -17 6 -3 4 16 18 21 51 20 7 -1 11 5 8 12 -7 20 41
15 60 -6 16 -18 16 -19 -14 -19 -17 0 -34 -5 -37 -10 -4 -7 -13 -7 -26 0 -15
9 -19 7 -19 -5 0 -9 -9 -15 -25 -15 -18 0 -25 5 -25 19 0 11 -4 22 -8 25 -11
7 -12 -26 0 -40 11 -15 -1 -46 -15 -37 -7 4 -8 -10 -3 -44 3 -27 3 -52 0 -56
-12 -11 -34 14 -34 38 0 16 -9 26 -30 35 -16 7 -28 16 -25 20 6 10 55 0 55
-11 0 -5 5 -9 10 -9 6 0 10 7 10 15 0 7 8 19 18 25 16 11 16 11 -1 6 -10 -3
-27 0 -38 8 -17 11 -18 14 -4 19 8 4 15 1 15 -5 0 -6 3 -8 6 -5 4 4 1 13 -6
22 -11 13 -10 14 4 9 12 -4 16 -1 16 14 0 24 -16 38 -23 20 -3 -8 -6 -6 -6 5
-1 11 6 17 20 17 15 0 20 5 17 23 -2 18 -9 22 -32 20 -32 -2 -64 26 -43 39 7
4 0 11 -16 19 -31 14 -33 24 -12 46 16 16 12 33 -8 33 -8 0 -9 -3 -1 -8 6 -4
4 -13 -8 -24 -10 -10 -20 -18 -23 -18 -3 0 -9 0 -15 0 -5 0 -9 -3 -9 -7 4 -22
-2 -47 -9 -38 -9 13 -42 16 -42 4 0 -5 7 -9 15 -9 7 0 18 -6 22 -12 11 -18 53
-40 53 -28 0 5 -9 14 -19 20 -13 6 -17 17 -14 30 6 21 12 24 38 14 13 -5 14
-8 3 -15 -10 -7 -9 -9 5 -9 11 0 17 -8 17 -22 0 -20 -19 -64 -20 -46 0 4 -9 0
-20 -10 -24 -20 -41 -22 -55 -5 -8 9 -14 9 -28 -2 -18 -13 -17 -14 3 -20 25
-8 23 -41 -3 -37 -24 4 -21 -15 4 -29 16 -8 20 -8 14 0 -8 14 13 43 26 35 5
-3 9 1 9 10 0 19 52 6 58 -15 5 -12 3 -12 -12 0 -9 8 -19 11 -22 8 -3 -3 3
-10 13 -15 19 -9 65 -2 64 11 -2 21 0 27 9 27 14 0 12 -23 -4 -54 -12 -23 -14
-24 -20 -9 -6 14 -9 15 -16 3 -5 -8 -6 -19 -2 -25 3 -5 -1 -5 -9 2 -12 9 -14
5 -12 -25 1 -21 2 -40 2 -44 1 -4 13 -5 27 -2 22 4 25 2 20 -13 -5 -11 0 -23
15 -34 22 -16 36 -69 18 -69 -5 0 -9 5 -9 10 0 19 -39 50 -57 44 -11 -3 -14
-2 -8 3 6 4 11 16 12 26 0 10 -1 16 -4 14 -6 -7 -43 30 -43 42 0 5 -6 11 -13
14 -16 6 -19 -22 -5 -40 6 -7 4 -14 -3 -19 -7 -4 -15 -2 -17 4 -6 19 -19 14
-17 -8 2 -31 13 -35 37 -14 20 18 21 18 15 1 -4 -10 -7 -23 -7 -29 0 -6 -8 -8
-19 -5 -10 2 -25 0 -34 -4 -11 -7 -20 -3 -30 11 -7 11 -17 17 -22 12 -4 -4 -5
1 -2 10 3 10 2 20 -4 23 -5 4 -7 10 -5 14 3 4 1 13 -5 21 -7 12 -9 12 -9 1 0
-7 -6 -11 -13 -8 -8 3 -13 -3 -13 -14 0 -12 7 -19 18 -19 13 0 18 -8 18 -25 0
-14 7 -28 15 -31 8 -4 13 -10 10 -14 -9 -14 27 -21 42 -8 11 9 19 9 35 -1 18
-11 20 -11 15 3 -4 9 -1 16 6 16 8 0 12 -15 12 -39 0 -30 -3 -37 -14 -33 -10
4 -13 1 -8 -11 3 -9 3 -17 -2 -17 -16 0 -21 13 -9 27 6 7 8 17 4 20 -4 4 -11
1 -15 -6 -5 -8 -11 -9 -15 -3 -3 5 1 13 10 16 8 3 12 10 9 16 -12 19 -23 10
-35 -26 -8 -24 -15 -32 -20 -24 -11 18 -41 5 -34 -15 4 -9 13 -14 20 -11 18 7
25 -6 13 -24 -6 -11 -9 -12 -9 -2 0 7 -5 10 -12 6 -8 -5 -5 -13 10 -24 12 -10
18 -20 15 -24 -13 -13 -24 -5 -35 24 -8 24 -13 28 -23 20 -9 -8 -14 -8 -17 0
-4 13 -38 3 -38 -11 0 -5 10 -9 22 -9 25 0 14 -14 -19 -24 -16 -5 -23 -2 -26
11 -4 14 -5 13 -6 -4 0 -13 3 -23 8 -23 5 0 11 -9 14 -20 5 -20 27 -28 27 -10
0 6 -4 10 -8 10 -5 0 -9 7 -9 15 0 8 4 15 9 15 4 0 8 -6 8 -14 0 -15 34 -11
57 6 7 5 14 5 18 -2 3 -5 2 -10 -3 -10 -6 0 -9 -7 -8 -16 0 -9 -7 -18 -16 -19
-10 -2 -18 1 -18 6 0 5 -4 9 -10 9 -5 0 -10 -9 -10 -20 0 -11 -5 -20 -11 -20
-5 0 -7 5 -3 12 4 6 3 8 -3 5 -5 -3 -9 -22 -8 -41 1 -20 -1 -33 -5 -31 -4 2
-20 -9 -35 -25 -32 -33 -45 -38 -45 -15 0 8 3 14 8 13 4 -2 18 5 32 15 20 14
21 17 7 17 -10 0 -15 5 -12 10 3 6 1 10 -4 10 -6 0 -11 -6 -11 -12 -1 -7 -9
-3 -19 9 -10 12 -21 20 -24 17 -3 -3 -8 -1 -12 5 -4 7 4 11 21 11 15 0 24 3
21 7 -4 3 -2 13 5 20 8 10 9 17 1 21 -10 7 -10 52 0 69 3 4 -10 9 -28 10 -27
1 -33 -2 -32 -17 1 -15 5 -16 19 -9 19 10 19 12 21 -51 2 -27 -2 -35 -17 -38
-14 -3 -17 0 -13 12 4 11 -1 18 -18 22 -14 3 -25 10 -25 16 0 5 -4 7 -10 3
-15 -9 0 -35 22 -35 13 0 18 -5 16 -17 -2 -10 -10 -17 -17 -15 -9 2 -9 -3 -1
-18 11 -21 2 -25 -44 -20 -11 1 -16 -3 -11 -9 3 -6 10 -9 15 -6 5 3 11 -4 15
-15 7 -21 26 -19 21 3 -1 7 -1 9 1 5 3 -5 11 -8 19 -8 13 0 18 12 15 33 -1 4
9 3 21 -4 21 -11 21 -12 2 -23 -14 -7 -19 -20 -18 -38 4 -44 -35 -59 -70 -26
-14 13 -16 19 -6 17 22 -5 70 10 70 21 0 12 -17 13 -24 1 -3 -5 -24 -8 -46 -7
-31 2 -37 -1 -28 -11 8 -9 7 -18 -3 -30 -13 -15 -12 -15 9 -4 20 11 23 9 32
-14 12 -32 12 -35 1 -35 -5 0 -12 10 -15 23 -6 20 -7 21 -19 5 -12 -15 -16
-16 -35 -2 -19 13 -22 13 -31 -3 -9 -16 -11 -16 -28 -2 -24 21 -53 31 -53 19
0 -6 7 -10 15 -10 17 0 20 -16 5 -25 -6 -3 -10 -2 -10 3 0 6 -9 8 -20 5 -25
-7 -26 -19 -2 -32 16 -10 16 -10 0 -11 -20 0 -24 -15 -8 -25 15 -10 12 -23 -9
-34 -17 -9 -19 -7 -16 17 1 15 6 36 10 46 6 14 5 17 -3 12 -8 -5 -12 0 -12 13
0 12 7 21 15 21 8 0 15 5 15 10 0 6 -16 9 -37 6 -21 -3 -42 -5 -47 -5 -4 -1
-6 -8 -3 -15 4 -10 1 -13 -9 -9 -7 3 -14 0 -14 -6 0 -6 9 -11 21 -11 28 0 19
-22 -11 -27 -13 -2 -27 -8 -31 -14 -5 -8 -8 -8 -13 -1 -8 13 -33 5 -39 -13 -4
-9 1 -11 16 -8 18 5 20 3 10 -7 -9 -10 -9 -18 -1 -33 8 -17 6 -23 -13 -38 -13
-10 -26 -16 -28 -13 -2 2 -10 -1 -18 -7 -10 -9 -13 -6 -13 15 0 29 26 63 38
51 4 -3 -2 -13 -12 -21 -16 -11 -17 -14 -4 -14 8 0 21 6 27 13 15 18 -19 53
-36 36 -7 -7 -15 -5 -26 6 -14 13 -20 14 -37 3 -25 -16 -26 -38 -1 -31 30 8
34 -15 6 -33 -24 -16 -27 -16 -43 0 -14 14 -15 19 -4 37 8 12 9 18 3 15 -10
-7 -84 23 -89 37 -8 17 -17 5 -19 -26 -2 -26 0 -29 8 -14 13 22 31 23 22 1 -5
-14 -3 -15 17 -4 20 11 22 10 17 -4 -4 -10 -1 -16 8 -16 8 0 15 -7 15 -15 0
-20 -10 -19 -26 2 -16 22 -28 12 -19 -16 7 -23 40 -29 48 -8 4 9 8 9 15 -2 6
-8 17 -11 28 -7 17 6 17 6 -1 -14 -22 -24 -35 -26 -35 -4 0 8 -4 12 -10 9 -26
-16 -52 -14 -57 5 -3 11 -11 16 -19 13 -8 -3 -14 1 -14 9 0 7 -9 14 -20 14
-19 0 -19 0 0 -21 27 -29 25 -35 -10 -31 -35 4 -46 11 -31 21 6 3 11 1 11 -4
0 -6 5 -11 10 -11 13 0 -10 38 -27 44 -8 3 -11 -4 -8 -24 4 -33 -9 -47 -28
-31 -14 11 -31 3 -40 -19 -3 -8 -5 -1 -4 17 0 17 -5 38 -12 47 -9 11 -10 16
-2 16 6 0 11 4 11 10 0 5 -7 6 -17 3 -11 -4 -14 -3 -9 5 4 7 2 12 -3 12 -6 0
-11 -8 -12 -17 0 -15 -2 -15 -9 2 -5 11 -9 14 -9 7 -1 -7 -5 -11 -10 -8 -13 9
-42 -4 -35 -16 3 -5 12 -7 19 -4 9 3 11 -4 5 -30 -8 -35 2 -46 17 -19 5 9 17
12 31 8 18 -4 20 -8 11 -19 -6 -8 -17 -14 -24 -14 -7 0 -25 -15 -40 -32 -15
-18 -25 -25 -22 -15 4 11 1 17 -8 17 -8 0 -15 7 -15 15 0 19 -16 20 -23 1 -3
-8 -1 -17 6 -19 9 -4 9 -7 0 -17 -9 -10 -15 -6 -29 23 -10 20 -22 34 -27 30
-5 -3 -4 4 2 16 7 11 8 22 4 22 -42 7 -50 5 -49 -13 1 -10 7 -23 15 -27 9 -6
10 -11 2 -15 -6 -4 -11 -2 -11 3 0 6 -5 11 -12 11 -6 0 -8 -3 -5 -7 4 -3 1
-13 -6 -21 -10 -13 -9 -15 5 -9 10 3 20 2 23 -4 4 -5 11 -7 16 -4 5 4 9 -3 9
-13 0 -22 40 -38 51 -21 4 7 9 8 13 1 3 -5 -1 -15 -8 -21 -11 -10 -21 -9 -45
4 -29 15 -32 15 -38 -2 -8 -22 -23 -33 -38 -27 -16 7 -15 34 2 34 15 0 16 9 4
29 -7 10 -11 9 -23 -8 -8 -11 -18 -18 -21 -14 -4 3 -7 -1 -7 -10 0 -9 -6 -17
-12 -18 -7 0 -24 -14 -38 -32 -14 -17 -19 -27 -11 -22 11 6 13 4 8 -9 -5 -13
-3 -17 7 -13 10 4 13 1 9 -8 -8 -22 -39 -1 -51 35 -8 22 -8 30 1 31 9 0 9 2 0
6 -19 7 -15 24 5 21 10 -2 16 2 14 11 -2 8 3 11 12 8 19 -8 27 4 16 22 -6 11
-13 9 -31 -8 -26 -24 -33 -25 -58 -12 -22 12 -43 -1 -35 -22 7 -19 20 -22 29
-7 5 8 12 7 22 -1 12 -11 11 -14 -9 -25 -13 -8 -17 -13 -9 -14 8 0 11 -3 8 -7
-4 -3 -2 -12 5 -20 6 -7 8 -17 4 -20 -4 -4 -11 -1 -16 6 -6 11 -9 8 -12 -9 -1
-13 -9 -25 -16 -28 -11 -3 -11 -1 -1 16 7 12 10 24 7 28 -8 7 -68 -17 -68 -28
0 -4 -14 -6 -31 -6 -24 1 -27 3 -15 10 9 5 20 7 25 4 5 -3 14 1 21 9 7 8 16
13 20 10 9 -6 23 25 15 33 -3 3 -14 -3 -25 -13 -12 -11 -20 -13 -20 -6 0 7 -4
9 -10 6 -5 -3 -10 1 -10 11 0 11 6 15 19 11 15 -3 18 -1 14 11 -4 10 -2 13 5
8 8 -5 10 -2 6 8 -8 20 -14 20 -40 1 -12 -8 -25 -11 -29 -7 -4 4 -5 -2 -1 -14
5 -16 2 -20 -14 -19 -24 2 -39 15 -17 15 10 0 17 5 17 10 0 6 -6 10 -12 10 -9
0 -8 4 2 11 12 8 10 9 -7 4 -26 -7 -47 22 -32 46 5 7 9 9 9 3 0 -6 10 -9 24
-7 16 3 28 -2 38 -16 13 -18 17 -19 33 -7 14 10 15 15 5 21 -7 4 -16 2 -20 -5
-5 -9 -9 -8 -13 3 -3 8 0 20 6 26 8 8 7 11 -6 11 -9 0 -17 -4 -17 -9 0 -5 -23
-7 -51 -4 -32 3 -49 1 -45 -6 4 -5 2 -13 -4 -16 -6 -4 -10 -14 -9 -23 4 -47
-21 -59 -41 -21 -14 26 -4 38 13 16 10 -15 12 -12 12 23 0 32 -3 39 -15 34 -8
-4 -26 -9 -39 -12 -18 -4 -22 -2 -16 8 6 10 4 12 -8 7 -10 -3 -17 -4 -17 -2 0
4 52 29 82 38 12 4 15 13 12 33 -4 24 -3 26 11 14 8 -7 15 -19 15 -27 0 -8 5
-11 10 -8 6 3 10 -1 10 -10 0 -9 5 -13 10 -10 8 5 7 11 -1 21 -6 7 -8 21 -5
30 5 12 2 15 -9 10 -10 -3 -18 1 -22 12 -11 28 -26 39 -45 34 -21 -5 -24 -29
-4 -34 7 -2 -1 -10 -19 -19 -31 -15 -32 -15 -22 2 17 27 0 35 -22 10 -12 -14
-22 -18 -26 -11 -3 5 1 17 9 26 24 23 19 34 -9 21 -17 -8 -24 -18 -21 -29 6
-24 -10 -23 -27 3 -11 15 -16 17 -20 7 -4 -9 -6 -8 -6 4 -1 11 -7 15 -20 11
-16 -4 -19 -1 -14 16 6 24 20 26 47 6 11 -8 25 -15 30 -15 6 0 4 5 -4 10 -11
7 -11 10 -2 10 7 0 10 5 6 11 -4 8 -9 7 -15 -2 -6 -9 -12 -10 -16 -4 -5 6 -18
16 -30 22 -19 11 -21 10 -17 -2 4 -9 0 -15 -9 -15 -10 0 -15 -7 -12 -20 5 -28
15 -41 25 -35 5 3 11 1 15 -5 3 -5 15 -10 26 -10 10 0 19 -3 20 -7 0 -5 2 -20
4 -35 3 -20 0 -25 -11 -21 -17 6 -18 15 -2 31 9 9 9 12 0 12 -7 0 -17 -10 -22
-22 -5 -13 -9 -17 -9 -10 -1 6 -10 12 -21 12 -11 0 -20 6 -20 13 0 7 -14 12
-35 13 -23 0 -35 -4 -35 -13 0 -7 -6 -13 -14 -13 -23 0 -46 11 -46 22 0 6 6 5
15 -2 8 -6 19 -9 25 -5 7 4 0 17 -19 36 -17 15 -26 31 -22 34 5 3 12 -2 15
-11 3 -9 12 -14 19 -11 6 2 17 -3 24 -12 7 -9 13 -11 13 -4 0 6 8 9 19 6 11
-3 21 2 24 11 5 11 1 16 -12 16 -11 0 -22 6 -24 13 -4 8 -8 8 -14 2 -4 -5 -14
-11 -22 -13 -12 -3 -12 -1 -1 13 8 9 22 14 32 12 10 -3 18 0 18 6 0 7 5 5 10
-3 8 -13 10 -12 10 3 0 21 -32 36 -38 18 -4 -11 -6 -11 -13 0 -4 7 -3 21 2 31
6 12 6 18 -1 18 -5 0 -10 -7 -10 -15 0 -8 -8 -15 -17 -15 -16 -1 -16 -2 1 -15
11 -8 17 -18 13 -21 -6 -6 -46 34 -46 46 -1 3 8 16 18 29 18 24 19 24 69 8 61
-20 59 -20 59 -4 0 6 3 22 7 35 5 14 3 22 -4 22 -6 0 -13 -14 -17 -31 -3 -19
-9 -26 -13 -19 -4 7 -5 21 -3 31 3 10 0 19 -6 19 -6 0 -11 5 -11 11 0 6 9 9
20 6 12 -3 18 -1 14 5 -3 5 -17 7 -29 4 -24 -6 -49 14 -27 22 20 6 4 21 -17
15 -24 -6 -36 -33 -16 -33 13 0 13 -3 3 -20 -9 -14 -14 -16 -20 -7 -5 8 -8 7
-8 -5 0 -25 -17 -22 -23 3 -3 12 1 32 10 45 14 22 14 24 -1 24 -10 0 -15 4
-11 9 3 5 1 12 -5 16 -5 3 -10 -3 -10 -14 0 -26 -12 -27 -35 -1 -10 11 -22 17
-28 13 -6 -3 -1 -10 11 -14 22 -8 31 -29 12 -29 -5 0 -10 4 -10 9 0 5 -9 11
-20 14 -13 3 -18 10 -14 21 4 10 1 16 -8 16 -8 0 -20 11 -26 25 -16 34 -15 40
3 25 8 -7 15 -19 15 -26 0 -8 4 -14 10 -14 5 0 7 6 4 13 -3 8 2 19 10 26 12
10 20 8 43 -16 23 -24 32 -27 49 -18 11 5 19 16 16 23 -2 6 1 12 8 12 6 0 8 5
5 10 -3 6 -1 10 5 10 16 0 24 -28 11 -44 -6 -7 -8 -16 -4 -19 10 -10 45 -8 39
2 -7 10 17 21 42 20 14 0 13 -2 -3 -9 -11 -5 -14 -9 -6 -9 7 -1 11 -7 8 -15
-4 -10 -1 -13 9 -9 16 6 20 -13 4 -20 -6 -3 -5 -4 2 -3 7 2 12 12 10 22 -2 10
-4 28 -5 39 -1 13 -10 20 -24 21 -38 2 -43 4 -42 12 4 26 -1 34 -16 22 -12
-10 -15 -9 -15 4 0 15 -2 15 -13 4 -7 -7 -16 -21 -20 -30 -10 -29 -34 -21 -41
13 -3 17 -3 35 0 40 3 5 -2 9 -11 9 -9 0 -19 9 -22 20 -3 12 -12 20 -22 18 -9
-1 -21 0 -26 4 -6 4 -11 -2 -11 -12 0 -10 3 -17 7 -14 4 2 12 -3 19 -11 9 -11
9 -18 -3 -30 -16 -16 -32 -21 -23 -7 3 5 -8 7 -23 4 -26 -4 -28 -2 -23 30 2
18 9 38 14 45 5 7 5 12 -2 15 -7 2 -6 10 4 23 11 15 17 17 27 8 6 -6 18 -9 25
-6 8 3 14 -1 14 -11 0 -9 5 -16 11 -16 5 0 7 5 4 10 -3 6 1 10 9 10 9 0 17 -6
17 -12 1 -7 5 1 8 17 5 19 3 36 -6 46 -7 8 -11 25 -8 38 4 22 4 22 -22 6 -25
-17 -26 -16 -52 10 -23 24 -23 26 -3 14 12 -8 22 -17 22 -21 0 -5 5 -8 10 -8
6 0 10 16 10 35 0 32 2 35 23 31 13 -2 30 0 38 5 10 6 10 9 2 9 -18 0 -16 27
3 34 8 3 12 2 9 -4 -7 -12 -3 -12 19 -4 20 8 21 24 1 24 -8 0 -15 5 -15 11 0
5 4 8 9 4 5 -3 13 -1 16 5 9 14 -14 42 -27 34 -6 -4 -14 0 -19 7 -6 10 -9 7
-10 -11 -1 -14 0 -31 1 -39 1 -9 -4 -12 -15 -8 -9 4 -18 1 -21 -8 -8 -21 -22
-19 -29 5 -3 11 -13 20 -21 20 -8 0 -14 5 -14 10 0 6 4 10 8 10 17 0 31 47 19
60 -9 10 -9 11 3 5 8 -4 23 -15 33 -23 28 -24 30 -8 2 22 -14 15 -23 32 -20
37 9 13 35 11 35 -3 0 -7 13 -14 29 -15 21 -2 30 3 34 18 5 17 2 19 -29 13
-28 -5 -34 -3 -34 11 0 11 5 15 19 10 15 -5 20 1 25 31 5 26 11 34 22 30 12
-4 12 -2 4 15 -6 11 -15 17 -20 14 -4 -3 -6 4 -3 15 6 22 -12 28 -21 8 -5 -10
-7 -10 -12 0 -3 6 -9 10 -13 8 -4 -3 -7 4 -8 14 -2 22 22 46 31 31 4 -5 2 -12
-4 -16 -20 -12 -10 -25 15 -19 15 4 25 2 25 -5 0 -21 29 -11 47 15 16 25 17
25 30 8 11 -15 13 -15 13 -2 0 9 -7 18 -15 22 -15 5 -22 27 -7 25 4 -1 14 -1
22 0 12 1 12 4 -3 15 -16 13 -16 14 10 19 57 11 102 32 106 49 4 14 2 16 -11
9 -9 -5 -23 -6 -32 -1 -12 6 -16 3 -17 -12 -1 -12 -8 -25 -15 -29 -18 -11 -23
-2 -8 16 11 13 10 14 -4 9 -9 -3 -16 -1 -16 6 0 6 -5 8 -12 4 -8 -5 -9 -2 -5
9 8 21 3 21 -27 2 -19 -13 -28 -13 -57 -3 -19 7 -35 18 -36 25 -3 14 26 10 36
-5 5 -9 13 -8 29 4 12 8 19 20 16 26 -5 7 -2 8 6 3 7 -4 16 -2 21 6 6 10 9 8
9 -8 0 -24 29 -46 48 -35 7 5 8 13 2 22 -17 26 -11 34 11 14 16 -14 22 -15 28
-5 12 19 1 63 -15 57 -9 -3 -14 2 -14 15 0 18 1 19 25 3 23 -15 25 -15 31 0 6
15 8 15 23 -2 20 -23 41 -18 41 10 0 18 -2 19 -17 7 -16 -12 -17 -11 -3 4 13
14 22 15 50 7 32 -9 33 -8 16 5 -11 8 -18 15 -15 16 2 0 12 2 21 4 9 2 19 -4
23 -13 5 -13 8 -12 20 4 17 22 19 38 5 29 -5 -3 -10 1 -10 9 0 10 6 13 15 10
8 -4 15 -10 15 -16 0 -5 4 -6 10 -3 16 10 50 -14 43 -31 -4 -12 2 -14 33 -11
22 2 38 7 37 11 -2 3 -3 11 -3 16 0 6 -9 10 -20 10 -13 0 -18 -5 -14 -15 10
-25 -10 -17 -22 9 -8 18 -8 28 -1 35 8 8 6 11 -7 11 -10 0 -14 4 -10 12 4 7 3
8 -4 4 -16 -10 -15 19 1 31 20 16 47 23 47 13 0 -6 -7 -10 -15 -10 -17 0 -19
-9 -5 -30 8 -13 11 -13 19 -1 7 11 11 10 21 -5 10 -16 11 -16 6 -1 -3 9 -9 24
-13 34 -5 14 -1 15 31 10 34 -5 38 -4 33 13 -6 22 0 25 23 10 13 -9 13 -10 0
-10 -10 -1 -8 -7 10 -21 22 -19 25 -19 36 -4 7 9 17 14 23 10 7 -4 9 2 7 17
-3 13 -5 26 -5 31 -2 12 -49 8 -55 -5 -4 -7 -4 -3 -2 10 3 18 1 22 -10 18 -8
-3 -12 -1 -9 4 7 12 55 10 73 -3 6 -5 12 -6 12 -3 0 4 8 2 18 -3 13 -7 22 -7
30 1 8 8 15 8 27 -2 12 -10 15 -10 15 3 0 8 8 21 18 28 14 11 15 11 5 -1 -19
-20 -17 -61 2 -54 8 4 15 1 15 -5 0 -6 -7 -11 -15 -11 -8 0 -15 -5 -15 -10 0
-7 7 -7 21 0 12 7 18 17 15 26 -3 8 -9 21 -12 29 -3 8 -2 15 3 15 19 0 73 -32
73 -42 0 -16 13 -1 16 17 1 8 -3 15 -9 15 -27 0 -38 16 -29 41 9 24 9 24 16 2
4 -12 17 -25 29 -29 12 -4 28 -14 34 -23 12 -14 12 -14 6 3 -8 23 20 46 56 46
21 0 23 -2 11 -10 -8 -5 -11 -10 -6 -10 5 0 1 -9 -9 -20 -11 -12 -13 -20 -6
-20 6 0 14 7 18 16 3 8 12 13 19 10 8 -3 13 -2 12 2 -4 14 23 53 33 47 5 -4 9
0 9 7 0 23 20 -15 21 -42 1 -14 3 -18 6 -10 4 15 68 50 91 50 15 0 28 43 13
48 -12 4 -15 22 -3 22 4 -1 17 -9 30 -19z m81 -28 c1 -7 -2 -13 -6 -13 -5 0
-9 15 -10 33 -1 26 0 28 7 12 5 -11 9 -26 9 -32z m295 38 c4 -5 -3 -7 -14 -4
-23 6 -26 13 -6 13 8 0 17 -4 20 -9z m206 5 c0 -2 -7 -7 -16 -10 -8 -3 -12 -2
-9 4 6 10 25 14 25 6z m-658 -44 c-5 -15 -59 -12 -53 3 1 6 7 9 12 7 5 -1 12
4 15 12 5 12 9 13 19 3 7 -6 10 -18 7 -25z m1145 23 c8 -9 13 -19 9 -22 -3 -4
-15 3 -26 15 -23 25 -7 31 17 7z m137 7 c2 -4 1 -14 -3 -21 -6 -9 -10 -7 -14
8 -5 20 7 29 17 13z m271 -2 c-3 -5 -10 -10 -16 -10 -5 0 -9 5 -9 10 0 6 7 10
16 10 8 0 12 -4 9 -10z m-1725 -10 c0 -5 -2 -10 -4 -10 -3 0 -8 5 -11 10 -3 6
-1 10 4 10 6 0 11 -4 11 -10z m70 0 c13 -8 13 -10 -2 -10 -9 0 -20 5 -23 10
-8 13 5 13 25 0z m-245 -10 c-3 -5 -12 -7 -20 -3 -21 7 -19 13 6 13 11 0 18
-4 14 -10z m135 0 c0 -5 -4 -10 -10 -10 -5 0 -10 5 -10 10 0 6 5 10 10 10 6 0
10 -4 10 -10z m410 0 c0 -5 -2 -10 -4 -10 -3 0 -8 5 -11 10 -3 6 -1 10 4 10 6
0 11 -4 11 -10z m920 -8 c0 -10 -6 -19 -14 -19 -11 0 -12 4 -3 19 7 10 13 18
14 18 2 0 3 -8 3 -18z m200 3 c0 -8 -7 -15 -15 -15 -8 0 -15 7 -15 15 0 8 7
15 15 15 8 0 15 -7 15 -15z m-1610 -5 c0 -5 -5 -10 -11 -10 -5 0 -7 5 -4 10 3
6 8 10 11 10 2 0 4 -4 4 -10z m916 -17 c-10 -10 -19 5 -10 18 6 11 8 11 12 0
2 -7 1 -15 -2 -18z m94 17 c8 -5 12 -12 9 -15 -8 -8 -39 5 -39 16 0 11 11 11
30 -1z m-815 -10 c-3 -5 -13 -10 -21 -10 -8 0 -12 5 -9 10 3 6 13 10 21 10 8
0 12 -4 9 -10z m445 -5 c0 -2 -7 -5 -15 -9 -9 -3 -15 0 -15 9 0 9 6 12 15 9 8
-4 15 -7 15 -9z m870 4 c0 -5 4 -8 8 -5 4 2 9 -4 9 -15 2 -24 1 -24 -27 6 -19
21 -21 25 -7 25 9 0 17 -5 17 -11z m151 -44 c1 -5 8 -14 15 -20 10 -8 9 -14
-6 -33 -18 -22 -50 -22 -50 0 0 6 6 5 15 -2 13 -11 15 -8 15 14 0 19 -5 26
-20 26 -16 0 -19 5 -16 25 8 42 18 50 31 24 7 -13 14 -28 16 -34z m-1981 36
c0 -6 -9 -9 -19 -8 -11 0 -17 5 -15 9 7 11 34 10 34 -1z m35 -20 c-6 -5 -25
10 -25 20 0 5 6 4 14 -3 8 -7 12 -15 11 -17z m773 11 c2 -7 -6 -12 -17 -12
-21 0 -27 11 -14 24 9 9 26 2 31 -12z m402 3 c0 -12 -19 -12 -23 0 -4 9 -1 12
9 8 7 -3 14 -7 14 -8z m406 4 c3 -6 0 -15 -7 -20 -14 -8 -32 9 -23 23 7 11 22
10 30 -3z m64 1 c9 -6 10 -10 3 -10 -18 0 -26 -39 -13 -55 10 -12 10 -15 0
-15 -8 0 -10 -3 -7 -7 4 -3 15 1 24 10 17 14 18 14 18 -14 0 -29 -5 -35 -19
-21 -4 4 -13 7 -19 7 -15 0 -28 56 -16 71 5 6 7 19 3 28 -7 18 4 21 26 6z
m107 4 c-3 -3 -12 -4 -19 -1 -8 3 -5 6 6 6 11 1 17 -2 13 -5z m102 -17 c12
-15 12 -17 -3 -11 -9 3 -16 13 -16 22 0 8 1 13 3 11 1 -2 9 -12 16 -22z m111
2 c0 -14 -17 -10 -23 5 -4 10 -1 13 9 9 7 -3 14 -9 14 -14z m40 17 c0 -2 -7
-9 -15 -16 -13 -11 -14 -10 -9 4 5 14 24 23 24 12z m-1641 -15 c11 -7 10 -11
-6 -19 -15 -9 -19 -7 -20 9 -2 21 5 23 26 10z m-499 -10 c0 -5 -7 -14 -15 -21
-16 -14 -18 -10 -9 14 6 17 24 22 24 7z m205 -1 c3 -6 -1 -7 -9 -4 -18 7 -21
14 -7 14 6 0 13 -4 16 -10z m185 -5 c0 -12 -19 -12 -23 0 -4 9 -1 12 9 8 7 -3
14 -7 14 -8z m1070 6 c0 -5 -7 -14 -15 -21 -12 -10 -15 -10 -15 2 0 8 3 18 7
21 9 10 23 9 23 -2z m454 -2 c2 -2 -2 -10 -10 -17 -11 -10 -15 -8 -24 8 -9 17
-8 20 9 17 11 -2 22 -5 25 -8z m-2098 -27 c1 -7 0 -8 -3 -2 -3 8 -9 7 -19 -1
-8 -7 -18 -9 -21 -5 -9 8 18 27 31 23 6 -2 11 -9 12 -15z m329 8 c-3 -5 -12
-10 -18 -10 -7 0 -6 4 3 10 19 12 23 12 15 0z m1719 -5 c3 -8 1 -15 -4 -15 -6
0 -10 7 -10 15 0 8 2 15 4 15 2 0 6 -7 10 -15z m283 0 c0 -11 -4 -12 -14 -4
-7 6 -13 13 -13 15 0 2 6 4 13 4 8 0 14 -7 14 -15z m-2107 -20 c0 -14 -6 -25
-13 -25 -8 0 -13 9 -11 23 3 28 2 27 14 27 6 0 10 -11 10 -25z m1887 10 c0
-15 -24 -28 -37 -20 -4 3 -7 -13 -6 -35 1 -31 5 -40 19 -40 10 0 16 -4 12 -10
-3 -5 -12 -7 -20 -4 -12 5 -13 1 -4 -25 6 -17 15 -29 20 -26 4 3 6 12 2 20 -3
8 0 15 6 15 11 0 15 -12 12 -42 -1 -10 3 -18 10 -18 7 0 10 -2 7 -5 -11 -11
-54 14 -67 39 -16 29 -35 25 -25 -6 5 -17 3 -20 -10 -15 -16 6 -22 -4 -9 -17
4 -3 7 -15 8 -25 1 -14 -6 -18 -29 -19 -28 0 -29 1 -8 9 12 4 22 14 22 20 0 8
-4 8 -15 -1 -9 -8 -15 -9 -15 -2 0 6 5 14 10 17 6 4 7 12 3 18 -4 7 -8 22 -8
34 -1 19 3 21 25 17 24 -5 24 -4 6 10 -10 8 -15 20 -10 27 4 8 3 10 -4 5 -15
-9 -15 3 2 33 l13 24 16 -23 15 -22 4 28 c2 17 8 28 16 26 7 -1 15 5 18 13 8
19 21 19 21 0z m273 -4 c0 -4 -6 -8 -14 -8 -8 0 -12 6 -9 14 5 13 23 9 23 -6z
m-195 -8 c0 -6 3 -15 7 -19 4 -4 1 -12 -8 -19 -14 -10 -14 -12 0 -24 14 -12
16 -12 10 3 -4 11 -1 16 11 16 9 0 14 -4 11 -8 -2 -4 -1 -14 4 -22 5 -9 5 -19
-1 -26 -8 -9 -5 -11 9 -7 23 6 38 -23 16 -31 -8 -3 -14 -1 -14 5 0 7 -10 9
-25 5 -17 -4 -25 -2 -26 6 -1 7 -2 20 -3 28 0 8 -6 14 -13 13 -7 -2 -10 4 -7
12 4 8 2 15 -4 15 -5 0 -13 -8 -16 -17 -6 -15 -8 -15 -16 -3 -19 29 -11 59 15
66 14 3 25 11 25 16 0 5 6 8 13 6 6 -3 12 -10 12 -15z m-2035 -8 c0 -8 -4 -15
-9 -15 -13 0 -22 16 -14 24 11 11 23 6 23 -9z m-60 -15 c0 -5 -4 -10 -9 -10
-6 0 -13 5 -16 10 -3 6 1 10 9 10 9 0 16 -4 16 -10z m165 0 c3 -5 1 -10 -4
-10 -6 0 -11 5 -11 10 0 6 2 10 4 10 3 0 8 -4 11 -10z m2045 6 c0 -3 -4 -8
-10 -11 -5 -3 -10 -1 -10 4 0 6 5 11 10 11 6 0 10 -2 10 -4z m137 -36 c-17
-28 -29 -25 -15 5 6 13 15 22 19 19 5 -3 3 -14 -4 -24z m-2607 16 c0 -2 -7 -7
-16 -10 -8 -3 -12 -2 -9 4 6 10 25 14 25 6z m354 -23 c-17 -18 -27 -13 -18 10
3 9 12 13 20 10 11 -4 11 -7 -2 -20z m2220 6 c-8 -14 -24 -10 -24 6 0 9 6 12
15 9 8 -4 12 -10 9 -15z m156 0 c0 -5 -4 -9 -10 -9 -5 0 -10 7 -10 16 0 8 5
12 10 9 6 -3 10 -10 10 -16z m-2444 -36 c-2 -3 -13 4 -25 16 -18 18 -18 20 -3
23 16 3 38 -29 28 -39z m2179 37 c3 -6 -1 -7 -9 -4 -18 7 -21 14 -7 14 6 0 13
-4 16 -10z m73 -15 c2 -25 -13 -35 -20 -13 -3 7 -10 8 -17 4 -11 -7 -11 -10 0
-17 17 -10 7 -21 -13 -14 -23 9 -11 58 13 52 11 -3 19 -1 19 4 0 21 16 7 18
-16z m-2198 -64 c0 -5 -9 -7 -20 -4 -11 3 -18 9 -15 13 3 5 1 10 -5 12 -5 1
-7 13 -3 26 5 23 6 22 24 -8 11 -17 19 -34 19 -39z m1789 52 c-1 -5 0 -12 2
-18 6 -22 4 -103 -3 -98 -5 2 -8 16 -8 29 0 16 -5 24 -12 21 -7 -2 -12 -11
-10 -19 1 -9 -4 -18 -13 -22 -9 -3 -15 0 -15 9 0 9 -10 15 -22 16 -15 0 -18 2
-8 6 8 3 25 15 37 26 19 16 25 18 38 7 9 -7 15 -8 15 -2 0 6 -5 12 -12 14 -6
2 -9 12 -5 21 6 17 18 24 16 10z m321 -8 c0 -12 -19 -12 -23 0 -4 9 -1 12 9 8
7 -3 14 -7 14 -8z m149 -49 c6 -4 11 0 11 8 0 9 8 16 18 16 13 0 14 -2 4 -9
-18 -11 -22 -43 -8 -60 9 -11 8 -13 -4 -9 -8 3 -27 -1 -42 -8 -26 -14 -28 -13
-43 16 -17 32 -2 43 19 14 13 -17 46 -10 46 11 0 16 -25 37 -33 28 -4 -3 -7 9
-7 28 l1 34 13 -31 c8 -18 19 -35 25 -38z m-2525 33 c-31 -12 -39 -10 -19 5
11 8 24 12 29 8 5 -3 1 -9 -10 -13z m136 11 c0 -5 -5 -10 -11 -10 -5 0 -7 5
-4 10 3 6 8 10 11 10 2 0 4 -4 4 -10z m40 -10 c0 -5 -4 -10 -10 -10 -5 0 -10
5 -10 10 0 6 5 10 10 10 6 0 10 -4 10 -10z m-95 -10 c3 -5 1 -10 -4 -10 -6 0
-11 5 -11 10 0 6 2 10 4 10 3 0 8 -4 11 -10z m2185 -22 c0 -5 -6 -8 -14 -8 -8
0 -13 8 -11 18 2 9 4 19 4 22 2 7 21 -23 21 -32z m326 5 c-10 -10 -19 5 -10
18 6 11 8 11 12 0 2 -7 1 -15 -2 -18z m-2548 -4 c7 -12 10 -24 6 -27 -4 -4 -9
-1 -11 6 -3 7 -11 19 -20 27 -11 12 -12 15 -1 15 7 0 19 -9 26 -21z m-451 5
c-3 -3 -12 -4 -19 -1 -8 3 -5 6 6 6 11 1 17 -2 13 -5z m243 -4 c0 -5 -2 -10
-4 -10 -3 0 -8 5 -11 10 -3 6 -1 10 4 10 6 0 11 -4 11 -10z m55 0 c3 -5 1 -10
-4 -10 -6 0 -11 5 -11 10 0 6 2 10 4 10 3 0 8 -4 11 -10z m250 -19 c-6 -5 -25
10 -25 20 0 5 6 4 14 -3 8 -7 12 -15 11 -17z m2510 19 c-3 -5 -10 -10 -16 -10
-5 0 -9 5 -9 10 0 6 7 10 16 10 8 0 12 -4 9 -10z m-2945 -10 c0 -5 -4 -10 -9
-10 -6 0 -13 5 -16 10 -3 6 1 10 9 10 9 0 16 -4 16 -10z m490 0 c0 -5 -5 -10
-11 -10 -5 0 -7 5 -4 10 3 6 8 10 11 10 2 0 4 -4 4 -10z m2590 -16 c0 -8 -6
-14 -14 -14 -8 0 -16 -8 -18 -17 -3 -12 -6 -9 -10 10 -4 21 -2 27 8 23 8 -3
11 0 7 10 -4 10 0 12 11 8 9 -3 16 -12 16 -20z m-3030 -10 c0 -20 -7 -17 -20
6 -9 16 -8 18 5 14 8 -4 15 -12 15 -20z m340 7 c6 -11 6 -22 1 -25 -5 -3 -11
5 -13 19 -6 30 -2 32 12 6z m2520 -11 c0 -5 -4 -10 -9 -10 -6 0 -13 5 -16 10
-3 6 1 10 9 10 9 0 16 -4 16 -10z m-2656 -25 c11 -8 17 -18 13 -21 -3 -3 -18
3 -33 15 -30 23 -10 29 20 6z m2356 5 c0 -5 -5 -10 -11 -10 -5 0 -7 5 -4 10 3
6 8 10 11 10 2 0 4 -4 4 -10z m370 0 c0 -5 -2 -10 -4 -10 -3 0 -8 5 -11 10 -3
6 -1 10 4 10 6 0 11 -4 11 -10z m31 -12 c-8 -24 -51 -38 -51 -18 0 7 8 9 22 5
16 -6 20 -4 15 8 -6 15 0 27 14 27 5 0 5 -10 0 -22z m69 -18 c3 -38 1 -46 -10
-30 -13 19 -13 77 -1 65 5 -6 10 -21 11 -35z m-763 15 c0 -8 -4 -12 -9 -9 -5
3 -6 10 -3 15 9 13 12 11 12 -6z m544 -8 c-7 -7 -14 -8 -21 -1 -6 6 -2 10 12
11 16 2 18 -1 9 -10z m-2816 -23 c-26 -24 -49 -23 -58 1 -4 9 1 11 15 7 14 -3
19 -1 14 6 -4 7 4 10 24 10 l30 -1 -25 -23z m181 11 c14 -13 13 -15 -5 -15
-12 0 -21 6 -21 15 0 8 3 15 6 15 3 0 12 -7 20 -15z m2394 5 c0 -5 -5 -10 -11
-10 -5 0 -7 5 -4 10 3 6 8 10 11 10 2 0 4 -4 4 -10z m123 -2 c-2 -5 -9 -8 -15
-8 -6 0 -16 -8 -23 -17 -12 -16 -13 -15 -8 7 3 18 11 25 28 25 13 0 21 -3 18
-7z m97 -26 c-7 -3 -16 2 -21 9 -16 25 -9 32 12 13 13 -12 16 -20 9 -22z m98
24 c-10 -7 -18 -19 -18 -27 0 -11 -2 -11 -10 1 -14 21 -12 28 8 33 32 8 37 6
20 -7z m192 -11 c0 -8 -8 -15 -17 -14 -11 0 -13 3 -5 6 6 2 10 9 6 14 -3 5 0
9 5 9 6 0 11 -7 11 -15z m-3250 -15 c0 -5 -2 -10 -4 -10 -3 0 -8 5 -11 10 -3
6 -1 10 4 10 6 0 11 -4 11 -10z m2727 -5 c0 -17 -13 -20 -21 -6 -4 5 0 12 6
14 7 3 13 6 14 6 0 1 1 -6 1 -14z m-2457 -13 c0 -10 -7 -19 -15 -19 -17 0 -17
0 -9 21 8 22 24 20 24 -2z m2606 -4 c4 -7 3 -8 -5 -4 -6 4 -14 0 -17 -8 -3 -9
-11 -16 -17 -16 -5 0 -2 9 8 20 21 23 22 24 31 8z m78 -1 c3 3 6 1 6 -7 0 -10
3 -10 16 1 12 10 20 10 35 1 11 -7 25 -9 32 -5 7 4 5 -2 -3 -12 -14 -17 -13
-18 8 -13 17 5 22 2 22 -13 0 -13 -7 -19 -22 -19 -12 0 -18 3 -15 7 8 7 -11
33 -25 33 -5 0 -6 -5 -2 -12 5 -7 3 -8 -7 -2 -21 13 -51 16 -44 4 3 -6 -1 -7
-10 -4 -9 4 -14 13 -11 20 4 11 -1 13 -22 7 -24 -6 -26 -5 -13 10 9 12 18 14
31 7 9 -5 20 -6 24 -3z m-2634 -1 c0 -2 -7 -6 -15 -10 -8 -3 -15 -1 -15 4 0 6
7 10 15 10 8 0 15 -2 15 -4z m2870 0 c0 -2 -9 -6 -20 -9 -11 -3 -20 -1 -20 4
0 5 9 9 20 9 11 0 20 -2 20 -4z m60 -12 c0 -8 -4 -12 -10 -9 -5 3 -10 1 -10
-5 0 -6 -4 -8 -10 -5 -6 4 -5 11 3 20 16 19 27 19 27 -1z m-118 -22 c3 -9 1
-26 -3 -37 -6 -15 -8 -11 -8 18 -1 40 4 48 11 19z m68 3 c7 -9 8 -15 2 -15 -5
0 -12 7 -16 15 -3 8 -4 15 -2 15 2 0 9 -7 16 -15z m-3155 -23 c-3 -3 -11 0
-18 7 -9 10 -8 11 6 5 10 -3 15 -9 12 -12z m2875 -1 c0 -4 -6 -13 -12 -19 -10
-10 -8 -14 9 -18 22 -6 41 -34 22 -34 -6 0 -7 -4 -4 -10 3 -5 1 -10 -5 -10 -7
0 -9 8 -5 20 7 23 -13 28 -33 8 -9 -9 -13 -7 -18 7 -5 12 -1 22 11 31 9 7 15
20 12 28 -4 10 -1 13 9 9 7 -3 14 -8 14 -12z m-2953 -21 c1 -16 -1 -17 -12 -7
-7 6 -11 15 -8 20 8 13 19 7 20 -13z m178 -27 c-4 -13 -3 -14 10 -3 9 7 19 10
22 6 4 -4 2 -11 -6 -15 -10 -7 -9 -10 3 -14 18 -7 22 -42 6 -52 -7 -4 -6 -13
1 -26 6 -12 8 -24 4 -27 -10 -11 -25 21 -25 56 0 22 -7 40 -22 51 -22 18 -20
59 3 46 6 -4 8 -14 4 -22z m71 12 c5 -12 10 -13 20 -4 9 7 19 7 31 1 12 -7 25
-6 44 3 25 13 26 13 22 -9 -4 -17 -12 -23 -34 -24 -16 0 -31 4 -34 9 -9 14
-25 11 -25 -6 0 -11 -6 -10 -25 7 -14 12 -25 25 -25 30 0 14 20 9 26 -7z
m2774 0 c-7 -9 -15 -13 -19 -10 -3 3 1 10 9 15 21 14 24 12 10 -5z m85 5 c-3
-5 1 -10 9 -10 23 0 20 -15 -6 -34 -16 -12 -19 -18 -10 -22 14 -7 16 -34 2
-34 -5 0 -10 5 -10 10 0 6 -7 10 -16 10 -8 0 -13 4 -10 9 4 5 0 12 -6 14 -8 3
-5 6 5 6 10 1 25 8 33 16 14 13 14 16 0 21 -16 6 -12 24 5 24 6 0 7 -4 4 -10z
m-3225 -26 c0 -8 -4 -12 -10 -9 -5 3 -10 10 -10 16 0 5 5 9 10 9 6 0 10 -7 10
-16z m3160 -14 c0 -5 -7 -10 -15 -10 -8 0 -19 -10 -26 -22 -10 -18 -9 -20 7
-14 17 6 17 6 1 -12 -9 -10 -14 -22 -10 -25 3 -4 2 -7 -3 -7 -5 0 -16 10 -23
23 -14 22 -15 27 -6 27 3 0 17 11 31 25 26 26 44 32 44 15z m240 0 c0 -5 -4
-10 -10 -10 -5 0 -10 5 -10 10 0 6 5 10 10 10 6 0 10 -4 10 -10z m-2941 -29
c-19 -8 -24 -52 -7 -62 7 -5 8 -9 2 -9 -12 0 -54 46 -54 60 0 6 9 10 20 10 11
0 20 4 20 10 0 5 8 6 17 3 13 -5 14 -8 2 -12z m-349 -1 c0 -5 -4 -10 -10 -10
-5 0 -10 5 -10 10 0 6 5 10 10 10 6 0 10 -4 10 -10z m2873 -10 c-3 -11 -7 -20
-9 -20 -2 0 -4 9 -4 20 0 11 4 20 9 20 5 0 7 -9 4 -20z m77 12 c0 -5 -7 -9
-15 -9 -8 0 -15 4 -15 9 0 4 7 8 15 8 8 0 15 -4 15 -8z m-2920 -11 c0 -16 -12
-41 -19 -41 -4 0 -8 7 -8 15 0 8 4 15 9 15 5 0 6 5 3 10 -3 6 -1 10 4 10 6 0
11 -4 11 -9z m110 -25 c0 -4 9 -6 20 -3 24 6 28 -18 4 -27 -22 -8 -26 -8 -19
3 3 5 -6 18 -20 29 -30 24 -33 37 -5 20 11 -7 20 -17 20 -22z m-150 -1 c0 -8
-7 -15 -16 -15 -14 0 -14 3 -4 15 7 8 14 15 16 15 2 0 4 -7 4 -15z m100 -7 c0
-16 -3 -19 -11 -11 -6 6 -8 16 -5 22 11 17 16 13 16 -11z m3084 6 c9 -3 14
-10 11 -15 -3 -4 -12 -6 -20 -3 -7 3 -18 -4 -25 -16 -6 -11 -15 -18 -21 -15
-5 4 -2 17 8 30 20 26 23 28 47 19z m-3113 -17 c-1 -4 -1 -16 -1 -27 0 -12 -7
-20 -16 -20 -13 0 -14 3 -5 14 6 7 8 21 5 31 -5 12 -3 16 5 14 7 -3 12 -8 12
-12z m2859 -1 c0 -8 -4 -17 -9 -20 -10 -7 -23 19 -14 28 11 11 23 6 23 -8z
m107 -8 c-3 -8 -6 -5 -6 6 -1 11 2 17 5 13 3 -3 4 -12 1 -19z m73 -10 c0 -5
-5 -8 -11 -8 -5 0 -7 5 -4 10 3 6 1 10 -5 10 -6 0 -8 5 -4 11 6 11 23 -6 24
-23z m145 22 c3 -5 -1 -10 -9 -10 -9 0 -16 5 -16 10 0 6 4 10 9 10 6 0 13 -4
16 -10z m-375 -10 c0 -5 -5 -10 -11 -10 -5 0 -7 5 -4 10 3 6 8 10 11 10 2 0 4
-4 4 -10z m-2880 -15 c0 -8 -2 -15 -4 -15 -2 0 -6 7 -10 15 -3 8 -1 15 4 15 6
0 10 -7 10 -15z m210 -12 c0 -5 -11 -13 -25 -20 -29 -13 -33 -6 -7 13 19 15
32 18 32 7z m2865 -2 c3 -6 -3 -15 -14 -20 -27 -15 -31 -14 -31 9 0 21 33 29
45 11z m65 -32 c0 -6 5 -7 10 -4 6 3 10 1 10 -4 0 -6 -4 -11 -10 -11 -10 0
-50 36 -50 45 0 3 9 1 20 -5 11 -6 20 -15 20 -21z m140 16 c0 -8 5 -15 11 -15
5 0 7 -5 3 -11 -3 -6 -9 -7 -13 -3 -9 13 -41 17 -41 6 0 -5 -8 -12 -18 -14
-12 -3 -18 1 -18 12 0 12 8 18 25 18 14 0 27 5 29 11 5 16 22 13 22 -4z
m-3275 -14 c-3 -6 -11 -8 -17 -5 -6 4 -5 9 3 15 16 10 23 4 14 -10z m270 -10
c3 -5 1 -12 -4 -16 -6 -3 -9 -11 -7 -18 1 -7 1 -9 -1 -4 -3 4 -11 7 -19 7 -17
0 -18 7 -1 25 14 17 24 18 32 6z m2635 -21 c0 -5 7 -6 17 -3 11 4 14 3 9 -5
-4 -7 -15 -12 -24 -12 -16 -1 -16 -2 1 -14 18 -14 24 -32 8 -21 -6 3 -13 0
-18 -7 -4 -7 -15 -19 -24 -25 -13 -10 -16 -10 -16 2 0 8 4 12 9 9 4 -3 8 2 8
10 0 9 8 16 18 17 10 0 12 3 5 6 -15 6 -18 53 -3 53 6 0 10 -4 10 -10z m87 -5
c-6 -7 -14 -11 -16 -9 -2 2 -11 -2 -19 -9 -13 -10 -14 -9 -2 8 7 12 21 22 31
22 15 1 16 -1 6 -12z m117 2 c3 3 6 1 6 -6 0 -8 -6 -11 -16 -7 -9 3 -20 6 -25
6 -5 0 -9 5 -9 10 0 7 6 7 19 1 10 -6 21 -7 25 -4z m-3029 -7 c11 -18 -5 -31
-21 -16 -8 8 -14 17 -14 20 0 10 28 7 35 -4z m135 -9 c0 -10 -7 -21 -15 -24
-12 -5 -12 -2 -3 18 13 30 18 31 18 6z m2960 0 c0 -12 -20 -25 -27 -18 -7 7 6
27 18 27 5 0 9 -4 9 -9z m96 -17 c-3 -8 0 -11 10 -7 7 3 14 1 14 -5 0 -16 -31
-23 -46 -11 -7 6 -18 8 -24 4 -11 -7 -12 -3 -4 19 3 8 12 12 21 9 11 -4 14 -2
9 5 -5 8 -2 10 9 6 9 -4 14 -13 11 -20z m-3106 6 c0 -5 -4 -10 -10 -10 -5 0
-10 5 -10 10 0 6 5 10 10 10 6 0 10 -4 10 -10z m-185 -27 c-13 -31 -10 -47 8
-51 10 -2 17 3 17 13 0 9 5 13 11 10 6 -4 8 -13 5 -21 -3 -7 -1 -16 4 -19 6
-4 10 -12 10 -18 0 -7 -8 -3 -16 8 -11 14 -18 16 -21 8 -3 -7 -11 -13 -19 -13
-8 0 -14 -4 -14 -10 0 -5 -5 -10 -11 -10 -8 0 -7 5 1 15 10 12 10 21 2 40 -9
19 -9 25 1 26 9 0 9 2 0 6 -7 2 -13 9 -13 14 0 6 5 7 10 4 6 -3 10 -1 10 4 0
6 5 11 11 11 7 0 8 -7 4 -17z m3035 3 c0 -10 -7 -12 -22 -8 -21 5 -21 6 -2 13
10 4 20 8 22 8 1 1 2 -5 2 -13z m77 -2 c-3 -3 -12 -4 -19 -1 -8 3 -5 6 6 6 11
1 17 -2 13 -5z m-2997 -28 c0 -2 -9 -6 -20 -9 -15 -4 -20 0 -20 14 0 17 3 18
20 9 11 -6 20 -12 20 -14z m2567 9 c3 -9 3 -19 -1 -22 -8 -9 -37 18 -30 28 8
14 24 11 31 -6z m-2827 -5 c0 -5 -4 -10 -10 -10 -5 0 -10 5 -10 10 0 6 5 10
10 10 6 0 10 -4 10 -10z m349 -14 c17 -20 -3 -30 -30 -15 -17 9 -19 13 -8 20
19 12 25 11 38 -5z m2851 4 c0 -5 -4 -10 -10 -10 -5 0 -10 5 -10 10 0 6 5 10
10 10 6 0 10 -4 10 -10z m40 -11 c0 -6 -4 -7 -10 -4 -5 3 -10 11 -10 16 0 6 5
7 10 4 6 -3 10 -11 10 -16z m97 15 c-3 -3 -12 -4 -19 -1 -8 3 -5 6 6 6 11 1
17 -2 13 -5z m-545 -36 c-7 -7 -12 -8 -12 -2 0 6 3 14 7 17 3 4 9 5 12 2 2 -3
-1 -11 -7 -17z m322 11 c-2 -4 0 -9 6 -11 6 -2 1 -9 -10 -16 -12 -7 -20 -8
-20 -2 0 5 6 10 13 10 7 1 4 7 -7 15 -18 13 -18 14 2 12 11 0 19 -4 16 -8z
m87 -23 c8 5 39 -18 39 -29 0 -3 -9 -7 -20 -10 -13 -3 -20 0 -20 9 0 8 -6 11
-15 8 -16 -7 -19 4 -8 33 7 17 8 17 11 0 2 -9 8 -15 13 -11z m144 15 c3 -5 2
-12 -3 -15 -5 -3 -9 1 -9 9 0 17 3 19 12 6z m67 -7 c-24 -17 -39 -14 -27 5 3
6 16 11 28 11 l21 0 -22 -16z m-3139 -14 c16 -19 16 -20 -2 -20 -14 0 -19 6
-18 20 1 11 2 20 2 20 0 0 8 -9 18 -20z m-178 -10 c3 -5 2 -10 -4 -10 -5 0
-13 5 -16 10 -3 6 -2 10 4 10 5 0 13 -4 16 -10z m3349 -16 c5 -12 2 -15 -10
-10 -8 3 -18 6 -20 6 -3 0 -2 5 1 10 9 15 22 12 29 -6z m-3248 -20 c-5 -14 -9
-15 -19 -5 -9 9 -9 14 3 21 18 11 24 6 16 -16z m-43 -20 c-6 -17 -52 -38 -61
-29 -4 3 4 8 16 12 15 4 22 13 22 30 0 21 3 23 14 13 8 -6 12 -18 9 -26z m127
28 c0 -4 -9 -8 -20 -8 -11 0 -20 4 -20 8 0 4 9 8 20 8 11 0 20 -4 20 -8z
m2750 -13 c-7 -11 -14 -18 -17 -15 -3 3 0 12 7 21 18 21 23 19 10 -6z m93 -1
c-12 -14 -18 -15 -24 -6 -10 16 -4 24 20 24 19 0 19 -1 4 -18z m-56 -30 c-3
-7 -5 -2 -5 12 0 14 2 19 5 13 2 -7 2 -19 0 -25z m180 10 c-3 -8 -6 -5 -6 6
-1 11 2 17 5 13 3 -3 4 -12 1 -19z m123 18 c0 -2 -7 -7 -16 -10 -8 -3 -12 -2
-9 4 6 10 25 14 25 6z m60 -8 c0 -6 -3 -8 -7 -5 -3 4 -12 2 -20 -4 -10 -9 -13
-8 -13 5 0 9 8 16 20 16 11 0 20 -5 20 -12z m-490 -40 c0 -5 -4 -8 -10 -8 -5
0 -10 10 -10 23 0 18 2 19 10 7 5 -8 10 -18 10 -22z m-2944 7 c-3 -20 -16 -31
-16 -13 0 13 8 28 16 28 1 0 1 -7 0 -15z m3434 0 c0 -8 -4 -15 -9 -15 -13 0
-22 16 -14 24 11 11 23 6 23 -9z m-3178 -39 c11 -20 10 -20 -9 -3 -11 9 -25
17 -32 17 -7 0 -10 4 -6 10 8 14 34 1 47 -24z m-81 -19 c-13 -13 -15 1 -4 30
7 17 8 17 11 -1 2 -10 -1 -23 -7 -29z m2824 33 c14 12 18 12 26 -1 12 -19 11
-29 -1 -29 -5 0 -10 5 -10 10 0 6 -5 10 -11 10 -6 0 -9 -7 -5 -15 5 -13 2 -13
-19 1 -14 9 -22 21 -19 26 4 6 10 5 14 -3 7 -10 12 -10 25 1z m89 -2 c-3 -4
-9 -8 -15 -8 -5 0 -9 4 -9 8 0 5 7 9 15 9 8 0 12 -4 9 -9z m-2776 -34 c-10
-10 -28 6 -28 24 0 15 1 15 17 -1 9 -9 14 -19 11 -23z m2617 26 c8 -13 -5 -13
-25 0 -13 8 -13 10 2 10 9 0 20 -4 23 -10z m242 -5 c0 -8 -4 -15 -9 -15 -10 0
-11 14 -1 23 9 10 10 9 10 -8z m57 3 c-3 -4 -11 -5 -19 -1 -21 7 -19 12 4 10
11 0 18 -5 15 -9z m-2874 -24 c0 -17 -22 -14 -28 4 -2 7 3 12 12 12 9 0 16 -7
16 -16z m3010 0 c0 -8 -5 -12 -10 -9 -6 4 -8 11 -5 16 9 14 15 11 15 -7z
m-3243 0 c-3 -3 -12 -4 -19 -1 -8 3 -5 6 6 6 11 1 17 -2 13 -5z m2986 -7 c3
-7 -3 -13 -12 -14 -10 -1 -18 5 -18 13 0 18 23 19 30 1z m127 -7 c0 -5 -5 -10
-11 -10 -5 0 -7 5 -4 10 3 6 8 10 11 10 2 0 4 -4 4 -10z m70 0 c0 -5 -4 -10
-10 -10 -5 0 -10 5 -10 10 0 6 5 10 10 10 6 0 10 -4 10 -10z m-3244 -19 c-13
-14 -14 -20 -5 -23 8 -3 9 -7 3 -11 -5 -3 -16 -2 -24 3 -12 7 -11 12 4 29 11
12 24 21 29 21 6 0 2 -9 -7 -19z m3401 13 c-3 -3 -12 -4 -19 -1 -8 3 -5 6 6 6
11 1 17 -2 13 -5z m-3268 -30 c-13 -16 -71 -13 -77 4 -2 8 7 11 27 8 17 -2 34
1 37 5 3 5 10 7 15 3 6 -4 6 -11 -2 -20z m91 16 c0 -5 -5 -10 -11 -10 -5 0 -7
5 -4 10 3 6 8 10 11 10 2 0 4 -4 4 -10z m2781 0 c18 -10 18 -12 4 -26 -12 -12
-19 -13 -29 -5 -17 14 -29 2 -14 -16 8 -11 7 -12 -6 -7 -11 4 -16 1 -16 -10 0
-18 -15 -22 -25 -6 -3 6 1 13 9 16 9 3 16 13 16 20 0 16 20 43 33 44 5 0 17
-5 28 -10z m312 -23 c-3 -5 -9 -3 -14 4 -4 7 -5 17 -2 22 3 5 9 3 14 -4 4 -7
5 -17 2 -22z m-3278 13 c3 -5 2 -10 -4 -10 -5 0 -13 5 -16 10 -3 6 -2 10 4 10
5 0 13 -4 16 -10z m234 -9 c10 -18 6 -31 -11 -31 -5 0 -6 4 -3 10 3 6 -1 7 -9
4 -19 -7 -20 -16 -4 -32 9 -9 8 -12 -4 -12 -9 0 -18 9 -21 20 -3 11 -1 20 3
20 5 0 12 9 15 20 8 25 21 26 34 1z m2896 9 c3 -5 1 -10 -4 -10 -6 0 -11 5
-11 10 0 6 2 10 4 10 3 0 8 -4 11 -10z m67 -12 c-7 -7 -12 -8 -12 -2 0 6 3 14
7 17 3 4 9 5 12 2 2 -3 -1 -11 -7 -17z m42 13 c3 -5 -1 -11 -9 -15 -9 -3 -15
0 -15 9 0 16 16 20 24 6z m-551 -52 c-3 -10 -2 -27 2 -36 5 -10 8 -21 7 -25
-1 -3 10 -5 23 -3 30 3 31 -1 5 -15 -30 -16 -59 3 -53 35 3 14 1 25 -3 25 -5
0 -9 13 -9 29 0 23 3 26 16 18 9 -6 14 -18 12 -28z m391 5 c3 -7 0 -16 -6 -20
-7 -5 -8 -2 -3 6 6 10 2 11 -19 6 -19 -5 -26 -3 -26 8 0 18 47 18 54 0z m119
2 c4 -10 1 -13 -8 -9 -8 3 -12 9 -9 14 7 12 11 11 17 -5z m-64 -43 c1 -7 -4
-13 -11 -13 -6 0 -8 3 -5 7 4 3 2 12 -4 19 -6 7 -7 19 -3 25 5 9 10 7 15 -7 4
-10 8 -25 8 -31z m-2861 26 c-2 -6 -7 -10 -11 -10 -4 1 -14 1 -23 1 -8 0 -12
5 -9 10 8 13 48 13 43 -1z m2572 -4 c-7 -9 -15 -13 -19 -10 -3 3 1 10 9 15 21
14 24 12 10 -5z m150 2 c0 -8 -6 -14 -14 -14 -8 0 -12 6 -9 14 3 7 9 13 14 13
5 0 9 -6 9 -13z m-2665 -16 c3 -5 2 -12 -3 -15 -12 -7 -52 4 -52 15 0 12 47
12 55 0z m2390 -2 c11 -17 -1 -21 -15 -4 -8 9 -8 15 -2 15 6 0 14 -5 17 -11z
m55 -20 c0 -5 -5 -9 -11 -9 -5 0 -7 5 -4 10 3 6 1 10 -4 10 -6 0 -11 5 -11 11
0 8 5 8 15 -1 8 -7 15 -16 15 -21z m43 -1 c6 -22 5 -22 -8 -4 -17 22 -20 40
-6 32 5 -3 11 -16 14 -28z m444 10 c-3 -8 -6 -5 -6 6 -1 11 2 17 5 13 3 -3 4
-12 1 -19z m-3216 -1 c-15 -19 -5 -26 34 -21 41 5 66 -24 40 -46 -15 -12 -20
-4 -16 23 1 7 -44 12 -81 9 -10 -1 -18 1 -18 5 0 9 33 42 44 42 5 1 3 -5 -3
-12z m3186 -2 c0 -8 -4 -15 -9 -15 -10 0 -11 14 -1 23 9 10 10 9 10 -8z
m-3250 -17 c-3 -8 -6 -5 -6 6 -1 11 2 17 5 13 3 -3 4 -12 1 -19z m216 2 c-3
-11 -9 -23 -14 -26 -10 -6 -12 29 -2 39 13 13 21 7 16 -13z m2722 0 c3 -5 1
-10 -4 -10 -6 0 -11 5 -11 10 0 6 2 10 4 10 3 0 8 -4 11 -10z m92 4 c-3 -3
-12 -4 -19 -1 -8 3 -5 6 6 6 11 1 17 -2 13 -5z m-59 -39 c-3 -3 -9 2 -12 12
-6 14 -5 15 5 6 7 -7 10 -15 7 -18z m-3058 -5 c0 -5 -5 -10 -11 -10 -5 0 -7 5
-4 10 3 6 8 10 11 10 2 0 4 -4 4 -10z m2778 -13 c2 -11 -3 -17 -15 -17 -15 0
-16 2 -3 10 10 6 11 10 3 10 -7 0 -13 5 -13 11 0 17 25 4 28 -14z m-2478 5 c0
-14 -11 -21 -26 -15 -8 3 -11 9 -8 14 7 11 34 12 34 1z m-44 -23 c3 -6 2 -15
-4 -21 -6 -6 -11 -2 -15 11 -5 22 7 29 19 10z m2441 5 c-3 -3 -12 -4 -19 -1
-8 3 -5 6 6 6 11 1 17 -2 13 -5z m183 -9 c0 -8 8 -15 17 -15 14 0 15 -2 4 -12
-10 -11 -15 -9 -27 6 -16 23 -18 36 -4 36 6 0 10 -7 10 -15z m-36 -10 c-4 -8
-8 -15 -10 -15 -2 0 -4 7 -4 15 0 8 4 15 10 15 5 0 7 -7 4 -15z m116 -6 c0 -5
-4 -9 -10 -9 -5 0 -10 7 -10 16 0 8 5 12 10 9 6 -3 10 -10 10 -16z m-2906 -8
c3 -4 -6 -7 -20 -5 -35 3 -43 14 -11 14 14 0 28 -4 31 -9z m2689 -3 c-2 -5
-11 -8 -19 -8 -8 0 -14 -5 -14 -11 0 -5 -4 -8 -10 -4 -16 10 -1 30 24 30 13 0
22 -3 19 -7z m42 2 c3 -5 1 -10 -4 -10 -6 0 -11 5 -11 10 0 6 2 10 4 10 3 0 8
-4 11 -10z m-2622 -19 c3 -12 -1 -22 -11 -26 -20 -7 -22 -4 -15 23 7 27 19 28
26 3z m127 15 c0 -3 -4 -8 -10 -11 -5 -3 -10 -1 -10 4 0 6 5 11 10 11 6 0 10
-2 10 -4z m-90 -40 c-14 -14 -22 -2 -14 18 5 14 9 15 15 4 4 -7 4 -17 -1 -22z
m2577 -2 c-3 -3 -12 -4 -19 -1 -8 3 -5 6 6 6 11 1 17 -2 13 -5z m-2458 -18 c9
-11 8 -15 -4 -20 -9 -3 -13 -2 -10 4 3 6 -1 10 -10 10 -9 0 -13 5 -10 10 9 14
20 12 34 -4z m2437 -24 c-8 -7 -46 19 -41 28 3 5 14 2 25 -7 11 -9 18 -19 16
-21z m284 28 c0 -5 -5 -10 -11 -10 -5 0 -7 5 -4 10 3 6 8 10 11 10 2 0 4 -4 4
-10z m-2960 -20 c0 -5 -5 -10 -11 -10 -5 0 -7 5 -4 10 3 6 8 10 11 10 2 0 4
-4 4 -10z m160 -12 c-1 -20 -25 -48 -41 -48 -10 1 -9 4 4 14 10 8 17 18 16 22
-3 16 1 24 11 24 6 0 10 -6 10 -12z m2900 -8 c0 -11 -4 -20 -9 -20 -5 0 -7 9
-4 20 3 11 7 20 9 20 2 0 4 -9 4 -20z m-2795 0 c7 -12 -19 -53 -28 -43 -12 11
-7 23 9 23 14 0 14 3 4 15 -8 9 -9 15 -2 15 6 0 14 -4 17 -10z m2362 4 c-3 -4
0 -13 8 -20 8 -8 12 -21 9 -29 -4 -8 1 -18 10 -21 9 -3 16 -11 16 -17 0 -5 -9
-2 -20 8 -11 10 -20 24 -20 32 0 7 -4 13 -9 13 -5 0 -8 8 -6 18 5 23 4 22 12
22 3 0 4 -3 0 -6z m-97 -34 c12 -23 12 -24 -3 -11 -10 7 -17 20 -17 29 0 18 3
16 20 -18z m-2460 5 c0 -2 -7 -5 -15 -9 -9 -3 -15 0 -15 9 0 9 6 12 15 9 8 -4
15 -7 15 -9z m280 -50 c14 4 17 0 14 -21 -3 -27 -14 -47 -14 -25 0 19 -28 43
-35 31 -3 -6 1 -17 9 -26 9 -9 14 -20 10 -25 -11 -18 -36 21 -32 51 6 38 2 38
-22 -2 l-21 -33 5 28 c4 21 2 26 -7 20 -7 -5 -23 -10 -37 -11 -21 -1 -23 1 -7
9 21 12 23 31 2 23 -8 -4 -15 -1 -15 5 0 14 23 14 37 0 8 -8 16 -6 30 8 18 19
18 19 42 -9 15 -18 30 -26 41 -23z m2168 3 c-21 -13 -25 -10 -25 17 0 25 0 25
18 9 15 -14 17 -19 7 -26z m532 38 c0 -3 -4 -8 -10 -11 -5 -3 -10 -1 -10 4 0
6 5 11 10 11 6 0 10 -2 10 -4z m80 -16 c8 -5 11 -10 5 -10 -5 0 -17 5 -25 10
-8 5 -10 10 -5 10 6 0 17 -5 25 -10z m-2980 -12 c0 -4 -4 -8 -9 -8 -6 0 -12 4
-15 8 -3 5 1 9 9 9 8 0 15 -4 15 -9z m2349 -30 c10 2 21 -5 25 -14 3 -9 13
-14 21 -11 9 4 12 1 8 -8 -4 -12 -10 -11 -31 5 -14 11 -27 18 -30 15 -3 -3 3
-12 14 -20 18 -13 18 -14 -3 -8 -13 3 -23 9 -23 14 0 5 -9 9 -21 9 -15 0 -19
4 -15 16 3 9 6 21 6 27 0 7 7 3 16 -8 8 -11 23 -19 33 -17z m601 22 c0 -5 -7
-10 -15 -10 -8 0 -15 5 -15 10 0 6 7 10 15 10 8 0 15 -4 15 -10z m70 -37 c-10
-16 -11 -16 -6 -1 3 10 1 20 -4 23 -6 4 -10 11 -10 16 0 6 7 3 16 -5 12 -12
13 -20 4 -33z m-35 -10 c-2 -20 -10 -41 -16 -47 -8 -8 -10 -7 -7 3 6 20 -28
52 -47 45 -8 -4 -15 -2 -15 4 0 18 31 22 46 7 19 -18 25 -19 23 -2 -3 25 1 38
11 32 5 -3 8 -22 5 -42z m-2988 17 c-1 -22 -17 -28 -17 -7 0 12 9 27 16 27 2
0 2 -9 1 -20z m2403 16 c0 -3 -4 -8 -10 -11 -5 -3 -10 -1 -10 4 0 6 5 11 10
11 6 0 10 -2 10 -4z m-2573 -38 c-3 -8 -6 -5 -6 6 -1 11 2 17 5 13 3 -3 4 -12
1 -19z m253 12 c13 -8 13 -10 -2 -10 -9 0 -20 5 -23 10 -8 13 5 13 25 0z
m2135 -37 c-26 -18 -32 -7 -9 18 12 14 20 17 23 8 2 -7 -4 -18 -14 -26z m675
17 c0 -5 -4 -10 -10 -10 -5 0 -10 5 -10 10 0 6 5 10 10 10 6 0 10 -4 10 -10z
m-547 -17 c-7 -2 -19 -2 -25 0 -7 3 -2 5 12 5 14 0 19 -2 13 -5z m607 -8 c0
-12 -4 -13 -19 -6 -10 6 -22 7 -26 3 -5 -4 -5 -1 -1 6 10 17 46 15 46 -3z
m-924 -15 c9 0 12 -5 8 -11 -4 -7 -1 -10 7 -7 8 3 13 12 13 21 -1 9 2 14 7 11
11 -7 11 -15 -1 -34 -7 -12 -12 -12 -34 0 -14 7 -26 20 -25 29 0 11 2 12 6 4
2 -7 11 -13 19 -13z m-1851 0 c-3 -5 -13 -10 -21 -10 -8 0 -12 5 -9 10 3 6 13
10 21 10 8 0 12 -4 9 -10z m62 -20 c-1 -13 -6 -19 -15 -15 -10 4 -12 0 -8 -11
5 -14 4 -15 -9 -4 -19 16 -19 30 0 30 8 0 15 7 15 16 0 8 4 13 9 9 6 -3 9 -14
8 -25z m-132 11 c6 8 11 7 17 -5 13 -24 5 -29 -31 -21 -21 4 -28 11 -24 21 4
11 9 12 18 4 10 -8 15 -8 20 1z m1795 -11 c0 -11 -4 -20 -10 -20 -5 0 -10 9
-10 20 0 11 5 20 10 20 6 0 10 -9 10 -20z m280 10 c0 -5 -2 -10 -4 -10 -3 0
-8 5 -11 10 -3 6 -1 10 4 10 6 0 11 -4 11 -10z m190 1 c0 -5 -6 -11 -13 -14
-8 -3 -14 1 -14 9 0 8 6 14 14 14 7 0 13 -4 13 -9z m180 -11 c0 -5 -4 -10 -10
-10 -5 0 -10 5 -10 10 0 6 5 10 10 10 6 0 10 -4 10 -10z m-2555 -60 l20 -25
-26 23 c-18 16 -34 21 -53 18 -30 -5 -33 1 -9 24 20 18 24 15 68 -40z m160 50
c3 -5 1 -10 -4 -10 -6 0 -11 5 -11 10 0 6 2 10 4 10 3 0 8 -4 11 -10z m2275 0
c0 -5 -2 -10 -4 -10 -3 0 -8 5 -11 10 -3 6 -1 10 4 10 6 0 11 -4 11 -10z m174
-6 c3 -8 2 -12 -4 -9 -6 3 -10 10 -10 16 0 14 7 11 14 -7z m305 2 c9 -10 8
-15 -4 -20 -10 -4 -15 1 -15 14 0 24 4 25 19 6z m-881 -9 c6 -7 7 -19 3 -26
-6 -9 -10 -7 -14 9 -4 14 -10 19 -18 14 -8 -4 -10 -3 -5 4 9 16 21 15 34 -1z
m960 -10 c5 -24 -15 -21 -21 4 -3 13 -1 19 6 16 7 -2 13 -11 15 -20z m-888 3
c0 -5 -2 -10 -4 -10 -3 0 -8 5 -11 10 -3 6 -1 10 4 10 6 0 11 -4 11 -10z
m-2390 -4 c0 -3 -4 -8 -10 -11 -5 -3 -10 -1 -10 4 0 6 5 11 10 11 6 0 10 -2
10 -4z m374 -11 c-4 -8 -10 -15 -15 -15 -4 0 -6 7 -3 15 4 8 10 15 15 15 4 0
6 -7 3 -15z m2033 -7 c-3 -8 -6 -5 -6 6 -1 11 2 17 5 13 3 -3 4 -12 1 -19z
m273 12 c0 -5 -4 -10 -10 -10 -5 0 -10 5 -10 10 0 6 5 10 10 10 6 0 10 -4 10
-10z m-2200 -21 c0 -5 -4 -7 -10 -4 -5 3 -10 1 -10 -6 0 -7 -3 -10 -6 -6 -8 7
4 27 17 27 5 0 9 -5 9 -11z m65 -15 c-14 -7 -29 -16 -35 -19 -12 -8 0 28 13
36 5 4 18 4 28 2 18 -5 17 -7 -6 -19z m-201 -5 c-3 -5 0 -8 7 -7 13 3 20 -40
7 -48 -4 -3 -8 2 -8 10 0 9 -8 16 -18 16 -11 0 -18 7 -18 19 0 11 4 17 8 15 4
-3 8 0 8 6 0 6 5 8 10 5 6 -4 8 -11 4 -16z m1804 -3 c-14 -14 -72 -21 -63 -7
3 6 12 8 19 5 7 -3 19 2 26 10 7 9 16 13 21 10 5 -3 4 -11 -3 -18z m-2092 -8
c-9 -5 -14 -13 -11 -18 3 -5 1 -11 -4 -14 -5 -4 -9 7 -9 22 1 24 5 28 21 24
17 -4 17 -6 3 -14z m54 12 c0 -6 10 -15 23 -20 22 -9 22 -9 0 -9 -12 -1 -24
-7 -27 -13 -3 -7 -4 -4 -3 7 1 12 -3 19 -10 18 -7 -2 -13 4 -13 12 0 8 7 15
15 15 8 0 15 -5 15 -10z m110 3 c-8 -3 -23 -12 -32 -21 -16 -13 -18 -13 -18 0
0 20 5 23 37 25 15 1 21 -1 13 -4z m2167 -15 c-3 -8 -6 -5 -6 6 -1 11 2 17 5
13 3 -3 4 -12 1 -19z m-1951 -15 c-4 -4 -12 -1 -19 7 -9 10 -9 11 1 6 7 -4 12
-2 13 6 0 11 2 11 6 0 3 -7 2 -16 -1 -19z m1817 13 c4 -10 1 -13 -9 -9 -15 6
-19 23 -5 23 5 0 11 -7 14 -14z m-2023 -16 c8 -5 11 -10 5 -10 -5 0 -17 5 -25
10 -8 5 -10 10 -5 10 6 0 17 -5 25 -10z m56 -4 c19 -19 18 -25 -3 -22 -10 2
-19 10 -21 19 -4 21 5 22 24 3z m2177 7 c-7 -2 -19 -2 -25 0 -7 3 -2 5 12 5
14 0 19 -2 13 -5z m-278 -23 c3 -6 -1 -7 -9 -4 -18 7 -21 14 -7 14 6 0 13 -4
16 -10z m450 -10 c3 -5 1 -10 -4 -10 -6 0 -11 5 -11 10 0 6 2 10 4 10 3 0 8
-4 11 -10z m-2110 -10 c8 0 11 -7 8 -20 -3 -11 -9 -20 -14 -20 -5 0 -6 7 -3
15 4 8 2 15 -4 15 -6 0 -13 -6 -15 -12 -3 -8 -6 -5 -6 5 -1 11 -6 15 -13 11
-7 -5 -8 -3 -4 5 5 7 15 10 23 7 8 -3 21 -6 28 -6z m1112 4 c-3 -3 -12 -4 -19
-1 -8 3 -5 6 6 6 11 1 17 -2 13 -5z m343 -15 c0 -5 -4 -9 -10 -9 -5 0 -10 7
-10 16 0 8 5 12 10 9 6 -3 10 -10 10 -16z m124 5 c3 -8 2 -12 -4 -9 -6 3 -10
10 -10 16 0 14 7 11 14 -7z m-1214 -13 c0 -5 -12 -11 -27 -14 -26 -5 -26 -4
-8 9 22 16 35 18 35 5z m-226 -40 c-2 -3 -12 3 -22 13 -16 17 -16 18 5 5 12
-7 20 -15 17 -18z m-231 -40 c-1 -2 7 -11 19 -21 31 -25 15 -39 -40 -34 -33 3
-42 1 -32 -6 13 -8 12 -10 -2 -10 -22 0 -22 2 1 44 11 19 17 37 13 40 -3 4 -6
15 -7 26 -1 16 2 15 24 -8 15 -15 25 -29 24 -31z m126 43 c-11 -14 -11 -18 4
-29 20 -15 12 -25 -20 -25 -12 0 -22 -3 -20 -7 1 -5 -1 -8 -4 -8 -3 0 -13 -6
-21 -13 -13 -10 -17 -10 -22 3 -3 9 0 15 10 15 12 0 15 7 12 30 -4 29 5 40 17
20 4 -6 15 -2 27 10 26 24 36 26 17 4z m141 12 c0 -3 -4 -8 -10 -11 -5 -3 -10
-1 -10 4 0 6 5 11 10 11 6 0 10 -2 10 -4z m1004 -72 c1 -19 -3 -34 -9 -34 -14
0 -17 38 -3 46 6 4 7 9 0 13 -5 3 -13 17 -17 31 l-7 25 17 -23 c9 -13 18 -39
19 -58z m826 66 c0 -5 -2 -10 -4 -10 -3 0 -8 5 -11 10 -3 6 -1 10 4 10 6 0 11
-4 11 -10z m-2227 -14 c4 -10 1 -13 -9 -9 -7 3 -14 9 -14 14 0 14 17 10 23 -5z
m307 3 c0 -5 4 -8 9 -5 5 3 11 -4 14 -15 5 -19 4 -20 -12 -5 -10 9 -23 16 -29
16 -7 0 -12 5 -12 10 0 6 7 10 15 10 8 0 15 -5 15 -11z m132 -15 c-7 -12 -11
-13 -17 -4 -4 7 -2 16 6 21 18 11 23 4 11 -17z m-378 0 c9 -22 0 -30 -18 -15
-11 9 -15 8 -20 -5 -4 -9 -9 -14 -13 -11 -3 4 -12 2 -20 -4 -25 -21 -13 0 14
26 32 29 48 32 57 9z m1101 6 c3 -5 2 -10 -4 -10 -5 0 -13 5 -16 10 -3 6 -2
10 4 10 5 0 13 -4 16 -10z m157 -19 c5 11 7 11 12 -2 8 -19 -39 -77 -52 -64
-4 4 -2 9 4 12 5 2 9 22 8 45 -2 40 -1 41 11 19 9 -17 14 -20 17 -10z m188 -8
c0 -25 -15 -12 -17 14 -1 19 1 22 8 12 5 -8 9 -20 9 -26z m-1018 -14 c-12 -9
-18 -20 -14 -24 4 -4 0 -6 -8 -3 -8 3 -17 13 -18 23 -2 9 0 15 6 11 5 -3 18 3
28 13 11 10 21 14 23 8 2 -6 -6 -18 -17 -28z m958 32 c0 -5 -7 -14 -15 -21
-12 -10 -15 -10 -15 2 0 8 3 18 7 21 9 10 23 9 23 -2z m-1060 -15 c0 -8 6 -17
13 -19 6 -3 2 -6 -10 -6 -16 -1 -21 4 -20 19 1 23 17 28 17 6z m-504 -12 c-3
-9 -6 -21 -6 -27 0 -8 -3 -8 -11 0 -6 6 -18 9 -25 6 -23 -9 -16 13 9 25 31 15
40 14 33 -4z m84 -8 c0 -8 11 -17 25 -20 27 -7 34 -26 9 -26 -9 0 -12 5 -8 13
6 9 5 9 -7 0 -9 -8 -20 -9 -29 -3 -11 7 -11 10 -2 10 10 0 10 5 2 20 -7 14 -7
20 0 20 5 0 10 -6 10 -14z m324 3 c-5 -8 1 -10 18 -6 21 6 25 3 24 -11 0 -9
-9 -23 -18 -30 -15 -11 -22 -11 -40 2 -21 15 -21 16 -3 17 12 0 15 3 7 6 -10
4 -10 8 -1 19 14 17 23 19 13 3z m261 1 c3 -5 2 -10 -3 -10 -6 0 -13 -11 -16
-25 -4 -14 -11 -23 -16 -20 -5 3 -5 18 2 35 10 31 22 38 33 20z m1105 -5 c0
-8 -4 -15 -10 -15 -5 0 -10 7 -10 15 0 8 5 15 10 15 6 0 10 -7 10 -15z m-1900
-15 c0 -5 -8 -10 -17 -10 -15 0 -16 2 -3 10 19 12 20 12 20 0z m290 -6 c0 -8
-5 -12 -10 -9 -6 4 -8 11 -5 16 9 14 15 11 15 -7z m1680 -16 c0 -5 -4 -8 -10
-8 -5 0 -10 10 -10 23 0 18 2 19 10 7 5 -8 10 -18 10 -22z m-1053 0 c-3 -8 -6
-5 -6 6 -1 11 2 17 5 13 3 -3 4 -12 1 -19z m-172 -34 c10 3 13 2 10 -5 -4 -6
-1 -9 7 -7 7 2 16 -1 18 -7 3 -5 -5 -11 -17 -13 -14 -2 -20 -8 -16 -18 3 -8 0
-14 -6 -14 -6 0 -11 7 -11 15 0 8 -9 19 -19 25 -13 7 -17 16 -14 31 5 17 3 20
-7 14 -9 -6 -11 -4 -5 5 6 10 12 8 27 -9 11 -14 24 -21 33 -17z m65 28 c0 -5
-7 -9 -15 -9 -8 0 -12 4 -9 9 3 4 9 8 15 8 5 0 9 -4 9 -8z m-212 -16 c26 6 25
5 -6 -15 -40 -26 -39 -26 -36 2 3 31 5 34 11 20 3 -8 15 -11 31 -7z m701 5
c15 -10 5 -34 -12 -28 -11 3 -19 37 -9 37 4 0 13 -4 21 -9z m343 -10 c4 -4
-13 -8 -37 -9 -25 -1 -45 3 -45 7 0 19 62 21 82 2z m-1122 -6 c0 -8 -7 -15
-15 -15 -9 0 -12 6 -9 15 4 8 10 15 15 15 5 0 9 -7 9 -15z m1013 8 c-7 -2 -19
-2 -25 0 -7 3 -2 5 12 5 14 0 19 -2 13 -5z m-633 -13 c0 -5 -7 -10 -15 -10 -8
0 -15 5 -15 10 0 6 7 10 15 10 8 0 15 -4 15 -10z m444 -15 c-4 -8 -8 -15 -10
-15 -2 0 -4 7 -4 15 0 8 4 15 10 15 5 0 7 -7 4 -15z m-915 -39 c-13 -15 -19
-3 -12 24 6 22 7 22 14 4 3 -10 3 -23 -2 -28z m171 5 c0 -14 -7 -16 -37 -12
-25 3 -31 6 -18 9 11 2 24 11 28 18 10 18 27 9 27 -15z m-273 -3 c-3 -8 -6 -5
-6 6 -1 11 2 17 5 13 3 -3 4 -12 1 -19z m609 7 c-3 -9 3 -19 14 -25 11 -6 17
-17 14 -24 -3 -8 0 -17 6 -21 9 -6 9 -10 -1 -16 -8 -4 -19 -3 -26 3 -9 7 -13
7 -13 -1 0 -6 -8 -3 -18 7 -12 10 -15 21 -10 28 4 6 6 19 2 28 -4 10 -1 16 7
16 11 0 11 3 -1 10 -12 8 -10 10 9 10 16 0 21 -4 17 -15z m38 1 c-21 -15 -30
-14 -19 3 3 6 14 11 23 11 13 0 13 -2 -4 -14z m351 4 c3 -5 1 -10 -6 -10 -7 0
-9 -3 -5 -7 4 -5 13 -8 19 -8 23 0 16 -23 -9 -29 -31 -8 -45 1 -24 14 9 6 10
10 3 10 -6 0 -9 9 -6 20 6 22 18 26 28 10z m100 0 c-3 -5 -11 -10 -16 -10 -6
0 -7 5 -4 10 3 6 11 10 16 10 6 0 7 -4 4 -10z m155 0 c0 -5 -4 -10 -10 -10 -5
0 -10 5 -10 10 0 6 5 10 10 10 6 0 10 -4 10 -10z m140 0 c0 -5 -4 -10 -10 -10
-5 0 -10 5 -10 10 0 6 5 10 10 10 6 0 10 -4 10 -10z m-866 -43 c7 -6 6 -7 -4
-4 -8 2 -16 12 -17 23 -2 13 -1 15 4 4 3 -8 11 -19 17 -23z m339 8 c-8 -22
-22 -18 -16 5 3 11 9 17 14 15 4 -3 6 -12 2 -20z m352 15 c-3 -5 -10 -10 -16
-10 -5 0 -9 5 -9 10 0 6 7 10 16 10 8 0 12 -4 9 -10z m465 0 c0 -5 -4 -10 -10
-10 -5 0 -10 5 -10 10 0 6 5 10 10 10 6 0 10 -4 10 -10z m-1286 -9 c3 -5 -1
-11 -9 -15 -9 -3 -15 0 -15 9 0 16 16 20 24 6z m80 -6 c-4 -8 -13 -15 -21 -15
-13 0 -13 3 -3 15 7 8 16 15 21 15 5 0 6 -7 3 -15z m-477 -27 c-3 -8 -6 -5 -6
6 -1 11 2 17 5 13 3 -3 4 -12 1 -19z m318 12 c3 -5 1 -10 -4 -10 -6 0 -11 5
-11 10 0 6 2 10 4 10 3 0 8 -4 11 -10z m-65 -11 c0 -4 -9 -11 -20 -14 -11 -3
-20 -13 -20 -21 0 -8 -4 -14 -10 -14 -5 0 -10 7 -10 15 0 8 5 15 10 15 6 0 10
6 10 14 0 9 9 14 20 13 11 -1 20 -4 20 -8z m459 8 c-2 -1 -14 -11 -26 -21 -23
-19 -23 -19 -23 0 0 14 8 20 27 22 14 1 25 1 22 -1z m81 -22 c0 -14 -4 -25
-10 -25 -5 0 -7 7 -3 16 3 9 0 20 -8 25 -11 7 -11 9 4 9 12 0 17 -8 17 -25z
m260 15 c0 -5 -5 -10 -11 -10 -5 0 -7 5 -4 10 3 6 8 10 11 10 2 0 4 -4 4 -10z
m-1240 -20 c-8 -5 -17 -7 -19 -4 -3 3 1 9 9 14 8 5 17 7 19 4 3 -3 -1 -9 -9
-14z m280 11 c0 -5 -3 -16 -6 -25 -7 -19 -48 -22 -41 -3 2 6 12 11 21 11 13
-2 14 1 5 12 -9 11 -8 14 5 14 9 0 16 -4 16 -9z m74 -7 c3 -8 2 -12 -4 -9 -6
3 -10 10 -10 16 0 14 7 11 14 -7z m233 -2 c-1 -17 -9 -19 -52 -12 -7 1 36 26
52 30 1 0 1 -8 0 -18z m697 9 c3 -5 -1 -11 -9 -14 -9 -4 -12 -1 -8 9 6 16 10
17 17 5z m-940 -42 c-3 -5 -10 -7 -15 -3 -5 3 -7 10 -3 15 3 5 10 7 15 3 5 -3
7 -10 3 -15z m295 -16 c0 -27 -1 -27 -9 -5 -5 12 -12 22 -15 22 -4 0 -3 -4 0
-10 3 -5 -1 -10 -9 -10 -22 0 -29 18 -9 23 37 10 43 7 42 -20z m-162 1 c-3 -3
-12 -4 -19 -1 -8 3 -5 6 6 6 11 1 17 -2 13 -5z m531 -11 c2 -7 -1 -13 -8 -13
-6 0 -9 4 -5 9 3 5 -8 12 -25 15 l-30 6 32 -2 c17 -2 33 -9 36 -15z m-408 -13
c-7 -4 -9 -13 -6 -19 4 -6 3 -11 -1 -11 -5 0 -14 9 -20 19 -10 15 -10 21 0 24
19 7 41 -4 27 -13z m2957 -32 c-2 -13 -4 -5 -4 17 -1 22 1 32 4 23 2 -10 2
-28 0 -40z m-2989 -3 c-3 -3 -9 2 -12 12 -6 14 -5 15 5 6 7 -7 10 -15 7 -18z
m-508 5 c0 -5 -2 -10 -4 -10 -3 0 -8 5 -11 10 -3 6 -1 10 4 10 6 0 11 -4 11
-10z m3241 -1406 c4 -21 8 -82 10 -134 l4 -95 -27 -3 -28 -3 0 88 c0 117 10
195 24 190 6 -2 14 -21 17 -43z"/>
<path d="M3887 3870 c6 -22 23 -38 23 -21 0 17 -12 41 -20 41 -5 0 -6 -9 -3
-20z"/>
<path d="M3010 3839 c0 -6 -7 -8 -16 -5 -10 4 -14 1 -12 -6 3 -7 15 -15 28
-18 13 -3 25 -11 27 -17 3 -7 -4 -9 -17 -6 -16 4 -19 2 -14 -12 5 -11 9 -13
14 -5 4 6 10 11 14 11 20 -3 25 1 19 17 -6 15 -5 15 10 3 15 -12 17 -11 17 3
0 10 -6 23 -12 29 -17 16 -58 20 -58 6z"/>
<path d="M2870 3826 c0 -2 7 -6 15 -10 8 -3 15 -1 15 4 0 6 -7 10 -15 10 -8 0
-15 -2 -15 -4z"/>
<path d="M3107 3823 c-4 -3 -7 -13 -7 -22 1 -13 3 -13 11 2 11 19 8 33 -4 20z"/>
<path d="M3266 3814 c-4 -9 -4 -19 -1 -22 3 -3 5 0 5 8 0 8 4 9 13 3 8 -6 20
-6 35 2 18 10 20 14 8 18 -8 3 -17 -1 -21 -11 -6 -16 -7 -16 -20 1 -12 16 -13
16 -19 1z"/>
<path d="M3820 3820 c0 -5 14 -7 33 -3 45 8 47 13 4 13 -20 0 -37 -4 -37 -10z"/>
<path d="M2836 3811 c-4 -7 -5 -15 -2 -18 9 -9 19 4 14 18 -4 11 -6 11 -12 0z"/>
<path d="M3383 3797 c5 -15 37 -22 37 -9 0 5 -9 12 -21 15 -13 3 -19 1 -16 -6z"/>
<path d="M3880 3796 c0 -9 -9 -12 -27 -9 -22 4 -25 2 -13 -6 8 -6 24 -11 34
-11 24 0 13 -13 -16 -17 -22 -4 -48 -21 -48 -32 0 -14 49 -5 68 12 12 11 25
16 31 12 7 -4 8 1 4 12 -6 16 -5 17 12 3 14 -11 12 -6 -5 17 -27 35 -40 41
-40 19z"/>
<path d="M2950 3790 c0 -5 5 -10 11 -10 5 0 7 5 4 10 -3 6 -8 10 -11 10 -2 0
-4 -4 -4 -10z"/>
<path d="M2510 3782 c0 -5 14 -7 30 -4 17 2 30 6 30 8 0 2 -13 4 -30 4 -16 0
-30 -4 -30 -8z"/>
<path d="M2813 3765 c-3 -9 -3 -18 -1 -21 3 -3 8 4 11 16 6 23 -1 27 -10 5z"/>
<path d="M3977 3773 c-4 -3 -7 -11 -7 -17 0 -6 5 -5 12 2 6 6 9 14 7 17 -3 3
-9 2 -12 -2z"/>
<path d="M2765 3760 c3 -5 8 -10 11 -10 2 0 4 5 4 10 0 6 -5 10 -11 10 -5 0
-7 -4 -4 -10z"/>
<path d="M3070 3764 c1 -15 39 -56 49 -52 5 1 -4 16 -20 32 -16 16 -29 25 -29
20z"/>
<path d="M2620 3756 c0 -2 7 -7 16 -10 8 -3 12 -2 9 4 -6 10 -25 14 -25 6z"/>
<path d="M3165 3750 c-3 -5 1 -10 10 -10 9 0 13 5 10 10 -3 6 -8 10 -10 10 -2
0 -7 -4 -10 -10z"/>
<path d="M3135 3730 c18 -20 35 -26 35 -12 0 4 -12 12 -26 19 -26 12 -26 12
-9 -7z"/>
<path d="M3436 3735 c-3 -9 4 -21 20 -32 19 -12 22 -18 12 -25 -10 -7 -8 -8 5
-4 9 3 17 1 17 -4 0 -5 9 -2 20 8 l21 17 -21 17 c-12 9 -28 14 -35 11 -9 -3
-15 1 -15 11 0 20 -16 21 -24 1z"/>
<path d="M2390 3725 c0 -8 4 -15 10 -15 5 0 7 7 4 15 -4 8 -8 15 -10 15 -2 0
-4 -7 -4 -15z"/>
<path d="M3033 3726 c-3 -6 -3 -8 2 -4 4 4 14 3 22 -3 10 -9 13 -8 13 3 0 17
-28 20 -37 4z"/>
<path d="M3260 3729 c0 -5 5 -7 10 -4 6 3 10 8 10 11 0 2 -4 4 -10 4 -5 0 -10
-5 -10 -11z"/>
<path d="M3606 3723 c-6 -14 -5 -15 5 -6 7 7 10 15 7 18 -3 3 -9 -2 -12 -12z"/>
<path d="M2947 3719 c7 -7 15 -10 18 -7 3 3 -2 9 -12 12 -14 6 -15 5 -6 -5z"/>
<path d="M2990 3720 c0 -5 5 -10 11 -10 5 0 7 5 4 10 -3 6 -8 10 -11 10 -2 0
-4 -4 -4 -10z"/>
<path d="M3567 3699 c3 -10 9 -16 14 -13 13 8 11 21 -5 27 -10 4 -12 0 -9 -14z"/>
<path d="M2460 3699 c0 -5 5 -7 10 -4 6 3 10 8 10 11 0 2 -4 4 -10 4 -5 0 -10
-5 -10 -11z"/>
<path d="M3270 3700 c0 -5 5 -10 10 -10 6 0 10 5 10 10 0 6 -4 10 -10 10 -5 0
-10 -4 -10 -10z"/>
<path d="M3410 3694 c0 -8 5 -12 10 -9 6 4 8 11 5 16 -9 14 -15 11 -15 -7z"/>
<path d="M3169 3687 c5 -5 7 -15 5 -22 -3 -7 -1 -15 4 -19 5 -3 9 0 9 7 0 7 4
20 8 29 5 13 2 17 -14 15 -12 -1 -17 -5 -12 -10z"/>
<path d="M2370 3670 c0 -11 2 -20 5 -20 2 0 9 9 15 20 9 16 8 20 -5 20 -8 0
-15 -9 -15 -20z"/>
<path d="M3120 3680 c0 -5 5 -10 10 -10 6 0 10 5 10 10 0 6 -4 10 -10 10 -5 0
-10 -4 -10 -10z"/>
<path d="M3430 3670 c0 -5 5 -10 10 -10 6 0 10 5 10 10 0 6 -4 10 -10 10 -5 0
-10 -4 -10 -10z"/>
<path d="M2400 3659 c0 -5 5 -7 10 -4 6 3 10 8 10 11 0 2 -4 4 -10 4 -5 0 -10
-5 -10 -11z"/>
<path d="M2513 3655 c0 -8 4 -12 9 -9 4 3 8 9 8 15 0 5 -4 9 -8 9 -5 0 -9 -7
-9 -15z"/>
<path d="M2980 3654 c0 -2 10 -8 21 -15 17 -8 20 -8 17 2 -4 11 -38 23 -38 13z"/>
<path d="M3573 3653 c-22 -8 -14 -25 7 -18 12 4 28 1 37 -7 15 -12 15 -11 2
10 -14 22 -23 25 -46 15z"/>
<path d="M3805 3640 c-11 -5 -14 -9 -7 -9 6 -1 12 -12 12 -26 0 -22 2 -24 14
-13 9 9 11 17 4 25 -5 7 -7 17 -3 23 7 12 7 12 -20 0z"/>
<path d="M2541 3631 c-7 -5 -9 -11 -5 -14 5 -3 15 1 22 9 14 16 5 18 -17 5z"/>
<path d="M2195 3596 c-18 -15 -24 -25 -17 -30 6 -4 9 -13 6 -20 -3 -8 3 -16
15 -19 17 -4 18 -2 9 19 -6 13 -15 24 -20 24 -5 0 -7 4 -3 10 3 5 12 7 19 4 7
-3 16 3 20 12 10 25 3 25 -29 0z"/>
<path d="M2340 3602 c0 -6 6 -13 13 -15 8 -3 1 -14 -18 -31 -20 -17 -23 -24
-11 -19 15 5 18 3 13 -10 -3 -9 -2 -17 2 -17 5 0 11 7 15 15 3 8 1 15 -5 15
-5 0 -4 6 3 14 19 20 29 9 22 -22 l-7 -27 21 20 c18 18 19 21 4 33 -10 7 -17
21 -17 30 0 9 -8 18 -18 20 -9 2 -17 -1 -17 -6z"/>
<path d="M2466 3595 c-3 -9 0 -15 9 -15 9 0 12 6 9 15 -4 8 -7 15 -9 15 -2 0
-5 -7 -9 -15z"/>
<path d="M4194 3598 c-4 -6 -2 -14 4 -16 7 -2 10 -8 7 -13 -4 -5 0 -6 8 -3 9
3 13 13 10 25 -6 22 -18 25 -29 7z"/>
<path d="M2296 3592 c2 -2 -1 -13 -7 -23 -6 -11 -6 -19 0 -19 13 0 23 32 13
40 -5 4 -7 5 -6 2z"/>
<path d="M2407 3585 c3 -8 9 -12 14 -9 12 7 11 11 -5 17 -10 4 -13 1 -9 -8z"/>
<path d="M2981 3584 c0 -11 3 -14 6 -6 3 7 2 16 -1 19 -3 4 -6 -2 -5 -13z"/>
<path d="M3620 3589 c0 -5 5 -7 10 -4 6 3 10 8 10 11 0 2 -4 4 -10 4 -5 0 -10
-5 -10 -11z"/>
<path d="M3951 3584 c0 -11 3 -14 6 -6 3 7 2 16 -1 19 -3 4 -6 -2 -5 -13z"/>
<path d="M2240 3571 c0 -12 6 -21 16 -21 9 0 14 7 12 17 -5 25 -28 28 -28 4z"/>
<path d="M3585 3579 c-4 -6 -5 -12 -2 -15 2 -3 7 2 10 11 7 17 1 20 -8 4z"/>
<path d="M4160 3570 c0 -19 3 -21 12 -12 9 9 9 15 0 24 -9 9 -12 7 -12 -12z"/>
<path d="M3775 3570 c28 -12 37 -12 30 0 -3 6 -16 10 -28 9 -21 0 -21 -1 -2
-9z"/>
<path d="M2095 3559 c-4 -6 -13 -8 -20 -5 -18 6 -47 -27 -40 -47 4 -8 17 -17
30 -20 14 -2 22 0 19 4 -13 22 17 6 34 -18 17 -23 23 -26 33 -15 11 10 10 12
-4 12 -19 0 -22 11 -7 26 6 6 6 15 0 24 -8 12 -10 10 -10 -10 0 -14 -4 -20 -8
-15 -4 6 -16 11 -27 13 -32 5 -45 11 -45 21 0 6 12 6 31 1 24 -7 29 -6 20 4
-7 9 -7 16 1 24 7 7 9 12 6 12 -4 0 -10 -5 -13 -11z"/>
<path d="M4026 3562 c-3 -6 -1 -14 5 -17 14 -9 20 -2 10 14 -6 8 -11 9 -15 3z"/>
<path d="M3835 3550 c-3 -5 -1 -10 4 -10 6 0 11 5 11 10 0 6 -2 10 -4 10 -3 0
-8 -4 -11 -10z"/>
<path d="M3896 3545 c4 -8 10 -12 15 -9 11 6 2 24 -11 24 -5 0 -7 -7 -4 -15z"/>
<path d="M3986 3552 c-3 -6 -1 -14 5 -17 15 -10 25 3 12 16 -7 7 -13 7 -17 1z"/>
<path d="M4065 3540 c3 -5 8 -10 11 -10 2 0 4 5 4 10 0 6 -5 10 -11 10 -5 0
-7 -4 -4 -10z"/>
<path d="M2247 3533 c-10 -9 -9 -23 1 -23 5 0 9 7 9 15 0 17 -1 18 -10 8z"/>
<path d="M4024 3507 c2 -27 17 -38 24 -18 2 6 -1 11 -6 11 -6 0 -13 8 -15 18
-3 9 -4 5 -3 -11z"/>
<path d="M2185 3511 c-3 -5 -1 -12 5 -16 5 -3 10 1 10 9 0 18 -6 21 -15 7z"/>
<path d="M3790 3512 c0 -5 7 -9 15 -9 8 0 12 4 9 9 -3 4 -9 8 -15 8 -5 0 -9
-4 -9 -8z"/>
<path d="M3890 3500 c0 -5 5 -10 10 -10 6 0 10 5 10 10 0 6 -4 10 -10 10 -5 0
-10 -4 -10 -10z"/>
<path d="M3930 3500 c0 -5 5 -10 10 -10 6 0 10 5 10 10 0 6 -4 10 -10 10 -5 0
-10 -4 -10 -10z"/>
<path d="M4092 3480 c17 -17 33 -28 36 -26 6 7 -45 56 -58 56 -5 0 5 -14 22
-30z"/>
<path d="M2245 3490 c-3 -5 1 -10 10 -10 9 0 13 5 10 10 -3 6 -8 10 -10 10 -2
0 -7 -4 -10 -10z"/>
<path d="M3705 3480 c-3 -5 -2 -10 4 -10 5 0 13 5 16 10 3 6 2 10 -4 10 -5 0
-13 -4 -16 -10z"/>
<path d="M4264 3478 c-4 -6 0 -17 10 -23 15 -11 15 -14 -4 -26 -19 -13 -20
-16 -5 -34 12 -16 14 -17 9 -2 -4 11 -1 17 9 17 17 0 32 43 17 48 -6 2 -10 10
-10 18 0 17 -16 19 -26 2z"/>
<path d="M3951 3468 c-1 -10 4 -18 10 -18 5 0 7 -4 4 -10 -8 -14 8 -13 22 1
13 13 6 39 -9 39 -5 0 -6 -4 -3 -10 3 -5 2 -10 -4 -10 -5 0 -12 6 -14 13 -3 7
-6 5 -6 -5z"/>
<path d="M2230 3450 c0 -5 5 -10 11 -10 5 0 7 5 4 10 -3 6 -8 10 -11 10 -2 0
-4 -4 -4 -10z"/>
<path d="M4070 3418 c0 -15 -3 -17 -19 -9 -16 9 -18 8 -14 -10 4 -12 11 -18
20 -15 8 3 19 6 24 6 5 0 9 8 9 18 0 10 3 13 8 6 4 -6 16 -14 26 -17 16 -6 17
-5 6 8 -8 10 -9 15 -1 15 6 0 11 3 11 8 0 4 -16 7 -35 8 -28 1 -35 -3 -35 -18z"/>
<path d="M2012 3421 c-11 -7 -11 -9 2 -14 9 -4 16 -2 16 4 0 6 5 7 12 3 7 -4
8 -3 4 4 -8 14 -16 15 -34 3z"/>
<path d="M3730 3420 c0 -5 5 -10 10 -10 6 0 10 5 10 10 0 6 -4 10 -10 10 -5 0
-10 -4 -10 -10z"/>
<path d="M2375 3410 c-3 -5 -1 -10 4 -10 6 0 11 5 11 10 0 6 -2 10 -4 10 -3 0
-8 -4 -11 -10z"/>
<path d="M4170 3410 c0 -5 5 -10 11 -10 6 0 9 -6 6 -12 -2 -7 3 -18 10 -23 11
-8 3 -11 -31 -10 -47 0 -59 -8 -29 -19 9 -4 20 -2 23 5 6 8 9 8 11 0 6 -18 67
-2 65 17 -2 31 -66 81 -66 52z"/>
<path d="M2110 3395 c0 -8 5 -15 10 -15 6 0 10 7 10 15 0 8 -4 15 -10 15 -5 0
-10 -7 -10 -15z"/>
<path d="M1996 3385 c7 -16 18 -18 48 -6 23 9 12 17 -26 19 -20 1 -26 -2 -22
-13z"/>
<path d="M2166 3385 c4 -8 10 -12 15 -9 11 6 2 24 -11 24 -5 0 -7 -7 -4 -15z"/>
<path d="M2078 3383 c7 -3 16 -2 19 1 4 3 -2 6 -13 5 -11 0 -14 -3 -6 -6z"/>
<path d="M3836 3363 c-6 -14 -5 -15 5 -6 7 7 10 15 7 18 -3 3 -9 -2 -12 -12z"/>
<path d="M4083 3365 c-18 -19 -16 -27 4 -23 9 2 17 11 19 21 3 20 -6 21 -23 2z"/>
<path d="M1975 3359 c-4 -6 -5 -12 -2 -15 2 -3 7 2 10 11 7 17 1 20 -8 4z"/>
<path d="M2040 3360 c-9 -6 -10 -10 -3 -10 6 0 15 5 18 10 8 12 4 12 -15 0z"/>
<path d="M3990 3352 c0 -5 6 -14 12 -20 10 -10 10 -15 -2 -23 -13 -9 -13 -10
0 -6 19 5 22 44 4 51 -8 3 -14 2 -14 -2z"/>
<path d="M3850 3335 c0 -8 2 -15 4 -15 2 0 6 7 10 15 3 8 1 15 -4 15 -6 0 -10
-7 -10 -15z"/>
<path d="M2015 3324 c-13 -13 -18 -14 -33 -3 -14 11 -14 10 1 -8 11 -12 16
-26 13 -31 -8 -14 25 -25 38 -12 12 12 17 70 6 70 -5 0 -16 -7 -25 -16z m25
-23 c0 -12 -20 -25 -27 -18 -7 7 6 27 18 27 5 0 9 -4 9 -9z"/>
<path d="M3881 3322 c-1 -25 19 -26 27 -2 3 7 0 10 -6 6 -6 -3 -13 0 -15 6 -3
7 -6 3 -6 -10z"/>
<path d="M3966 3294 c-4 -14 -2 -32 4 -39 12 -15 53 -28 44 -14 -3 5 -11 9
-19 9 -17 0 -25 22 -18 49 3 12 3 21 0 21 -3 0 -8 -12 -11 -26z"/>
<path d="M4233 3313 c-7 -2 -13 -13 -13 -23 0 -10 -7 -21 -16 -24 -13 -5 -15
-2 -11 14 3 11 1 20 -4 20 -5 0 -9 -13 -9 -30 0 -33 11 -38 33 -15 13 12 16
12 22 -8 6 -19 8 -19 12 -4 2 9 11 17 19 17 8 0 14 7 14 16 0 8 5 12 11 9 6
-4 8 -13 5 -21 -3 -8 1 -14 10 -14 11 0 15 -6 11 -20 -3 -11 -1 -20 4 -20 5 0
9 8 9 19 0 11 10 22 23 26 13 4 17 8 10 12 -7 2 -13 13 -13 22 0 24 -11 33
-26 20 -8 -7 -14 -7 -19 1 -7 11 -35 -11 -35 -27 0 -5 -9 -9 -20 -10 -11 -1
-20 2 -20 8 0 5 4 9 8 9 5 0 9 7 9 15 0 8 -1 15 -1 14 -1 0 -7 -3 -13 -6z
m107 -39 c0 -8 -4 -12 -10 -9 -5 3 -10 10 -10 16 0 5 5 9 10 9 6 0 10 -7 10
-16z"/>
<path d="M1937 3293 c-11 -3 -16 -11 -13 -19 5 -13 2 -13 -16 1 -28 19 -47 20
-28 0 13 -12 40 -21 73 -24 5 -1 6 -5 3 -10 -3 -5 6 -16 19 -25 14 -9 23 -21
20 -26 -4 -6 -1 -10 4 -10 20 0 11 28 -19 60 -29 31 -41 58 -20 45 6 -3 10 -1
10 4 0 11 -3 12 -33 4z"/>
<path d="M3930 3280 c0 -5 5 -10 11 -10 5 0 7 5 4 10 -3 6 -8 10 -11 10 -2 0
-4 -4 -4 -10z"/>
<path d="M4043 3265 c0 -8 4 -15 9 -15 4 0 8 4 8 9 0 6 -4 12 -8 15 -5 3 -9
-1 -9 -9z"/>
<path d="M2036 3245 c-9 -26 -7 -32 5 -12 6 10 9 21 6 23 -2 3 -7 -2 -11 -11z"/>
<path d="M2065 3250 c-3 -5 -1 -10 4 -10 6 0 11 5 11 10 0 6 -2 10 -4 10 -3 0
-8 -4 -11 -10z"/>
<path d="M3900 3252 c1 -17 17 -29 32 -23 15 5 13 8 -7 18 -14 6 -25 8 -25 5z"/>
<path d="M2140 3240 c0 -5 5 -10 11 -10 5 0 7 5 4 10 -3 6 -8 10 -11 10 -2 0
-4 -4 -4 -10z"/>
<path d="M1883 3223 c-19 -7 -16 -19 6 -20 14 -1 18 3 14 13 -3 8 -6 14 -7 13
0 0 -7 -3 -13 -6z"/>
<path d="M2080 3220 c0 -6 7 -10 15 -10 8 0 15 2 15 4 0 2 -7 6 -15 10 -8 3
-15 1 -15 -4z"/>
<path d="M3977 3219 c8 -8 9 -20 2 -38 -9 -24 -8 -25 6 -7 20 27 19 56 -2 56
-13 0 -14 -3 -6 -11z"/>
<path d="M2160 3210 c0 -5 4 -10 9 -10 6 0 13 5 16 10 3 6 -1 10 -9 10 -9 0
-16 -4 -16 -10z"/>
<path d="M1940 3200 c-8 -5 -12 -12 -9 -15 4 -3 12 1 19 10 14 17 11 19 -10 5z"/>
<path d="M1900 3180 c-13 -8 -12 -10 3 -10 9 0 17 5 17 10 0 12 -1 12 -20 0z"/>
<path d="M1964 3162 c2 -9 8 -18 14 -20 17 -5 15 25 -2 31 -9 4 -13 0 -12 -11z"/>
<path d="M3825 3170 c3 -5 8 -10 11 -10 2 0 4 5 4 10 0 6 -5 10 -11 10 -5 0
-7 -4 -4 -10z"/>
<path d="M2042 3150 c0 -14 2 -19 5 -12 2 6 2 18 0 25 -3 6 -5 1 -5 -13z"/>
<path d="M2066 3161 c-4 -5 -2 -12 3 -15 5 -4 12 -2 15 3 4 5 2 12 -3 15 -5 4
-12 2 -15 -3z"/>
<path d="M2182 3139 c2 -7 10 -15 17 -17 8 -3 12 1 9 9 -2 7 -10 15 -17 17 -8
3 -12 -1 -9 -9z"/>
<path d="M2010 3120 c0 -5 5 -10 11 -10 5 0 7 5 4 10 -3 6 -8 10 -11 10 -2 0
-4 -4 -4 -10z"/>
<path d="M3996 3117 c3 -10 9 -15 12 -12 3 3 0 11 -7 18 -10 9 -11 8 -5 -6z"/>
<path d="M1835 3110 c3 -5 10 -10 16 -10 5 0 9 5 9 10 0 6 -7 10 -16 10 -8 0
-12 -4 -9 -10z"/>
<path d="M1960 3099 c0 -11 -4 -17 -10 -14 -5 3 -17 2 -26 -3 -15 -8 -15 -10
1 -16 10 -3 23 -2 30 4 16 13 26 50 14 50 -5 0 -9 -9 -9 -21z"/>
<path d="M2450 3100 c0 -5 9 -10 21 -10 11 0 17 5 14 10 -3 6 -13 10 -21 10
-8 0 -14 -4 -14 -10z"/>
<path d="M3785 3100 c-3 -5 -1 -10 4 -10 6 0 11 5 11 10 0 6 -2 10 -4 10 -3 0
-8 -4 -11 -10z"/>
<path d="M1877 3089 c7 -7 15 -10 18 -7 3 3 -2 9 -12 12 -14 6 -15 5 -6 -5z"/>
<path d="M1742 3056 c1 -10 8 -17 13 -17 15 1 12 24 -3 29 -9 3 -13 -2 -10
-12z"/>
<path d="M2102 3049 c-12 -18 -11 -20 5 -17 10 2 19 11 21 21 5 23 -10 21 -26
-4z"/>
<path d="M4007 3018 c6 -81 12 -103 25 -90 6 6 7 22 3 39 -5 15 -9 40 -9 55
-1 15 -6 32 -12 38 -8 8 -10 -4 -7 -42z"/>
<path d="M3960 3046 c0 -8 -6 -16 -12 -19 -7 -2 -5 -3 4 -2 9 2 18 -1 20 -6 2
-4 9 -4 17 1 12 7 12 11 2 24 -17 20 -31 21 -31 2z"/>
<path d="M1952 3020 c11 -17 34 -20 56 -6 6 4 12 3 12 -1 0 -5 6 -17 13 -27
12 -16 15 -17 20 -3 10 27 -24 53 -70 53 -36 1 -40 -2 -31 -16z"/>
<path d="M3896 3024 c-4 -10 -1 -14 6 -12 15 5 23 28 10 28 -5 0 -13 -7 -16
-16z"/>
<path d="M4080 3025 c0 -8 4 -15 8 -15 5 0 9 7 9 15 0 8 -4 15 -9 15 -4 0 -8
-7 -8 -15z"/>
<path d="M2060 3020 c0 -5 5 -10 11 -10 5 0 7 5 4 10 -3 6 -8 10 -11 10 -2 0
-4 -4 -4 -10z"/>
<path d="M1915 3010 c-4 -6 -11 -8 -16 -5 -5 4 -9 -6 -8 -22 0 -15 3 -22 6
-15 2 6 16 12 29 12 28 0 30 6 10 26 -10 9 -17 10 -21 4z"/>
<path d="M1983 2983 c-20 -7 -15 -30 6 -36 15 -4 19 0 16 15 -5 25 -7 26 -22
21z"/>
<path d="M2130 2975 c0 -8 7 -15 15 -15 9 0 12 6 9 15 -4 8 -10 15 -15 15 -5
0 -9 -7 -9 -15z"/>
<path d="M4046 2977 c3 -10 9 -15 12 -12 3 3 0 11 -7 18 -10 9 -11 8 -5 -6z"/>
<path d="M2056 2964 c-9 -22 -8 -24 9 -24 8 0 15 6 15 14 0 22 -17 28 -24 10z"/>
<path d="M3865 2970 c3 -5 8 -10 11 -10 2 0 4 5 4 10 0 6 -5 10 -11 10 -5 0
-7 -4 -4 -10z"/>
<path d="M2031 2934 c0 -11 3 -14 6 -6 3 7 2 16 -1 19 -3 4 -6 -2 -5 -13z"/>
<path d="M1787 2925 c-4 -9 -3 -14 2 -11 5 3 14 -1 21 -9 14 -17 30 -11 30 12
0 10 -6 13 -17 9 -9 -4 -20 -2 -23 4 -5 8 -9 6 -13 -5z"/>
<path d="M3900 2930 c-8 -5 -12 -11 -9 -14 2 -3 11 -1 19 4 8 5 12 11 9 14 -2
3 -11 1 -19 -4z"/>
<path d="M1885 2889 c-3 -9 -18 -14 -39 -13 -41 2 -43 -20 -6 -53 23 -22 24
-22 2 -16 -30 7 -30 -24 1 -37 12 -5 16 -9 10 -9 -7 -1 -13 -6 -13 -12 0 -5 4
-8 9 -4 6 3 14 -3 20 -12 6 -11 11 -13 11 -5 0 9 7 11 20 7 51 -16 65 -15 77
10 6 14 8 25 3 25 -4 0 -10 9 -13 20 -3 11 0 20 5 20 6 0 5 6 -2 15 -9 11 -16
13 -23 6 -16 -16 -16 -53 -1 -47 15 6 25 -16 15 -33 -4 -7 -19 -9 -37 -5 -24
5 -30 11 -29 32 0 15 5 30 10 34 6 4 -2 8 -17 8 -35 0 -46 18 -15 25 13 4 27
5 33 4 28 -5 61 3 61 15 0 8 -6 12 -15 8 -9 -3 -13 -1 -9 5 3 5 0 10 -8 10 -8
0 -11 -5 -8 -11 4 -6 -3 -3 -15 8 -17 15 -23 16 -27 5z"/>
<path d="M3895 2890 c3 -5 8 -10 11 -10 2 0 4 5 4 10 0 6 -5 10 -11 10 -5 0
-7 -4 -4 -10z"/>
<path d="M2060 2881 c0 -5 5 -13 10 -16 6 -3 10 -2 10 4 0 5 -4 13 -10 16 -5
3 -10 2 -10 -4z"/>
<path d="M1988 2873 c7 -3 16 -2 19 1 4 3 -2 6 -13 5 -11 0 -14 -3 -6 -6z"/>
<path d="M2095 2870 c-4 -6 3 -10 14 -10 25 0 27 6 6 13 -8 4 -17 2 -20 -3z"/>
<path d="M2375 2870 c3 -5 8 -10 11 -10 2 0 4 5 4 10 0 6 -5 10 -11 10 -5 0
-7 -4 -4 -10z"/>
<path d="M3935 2863 c3 -8 5 -17 5 -19 0 -3 5 -2 10 1 16 10 12 32 -5 32 -10
0 -14 -6 -10 -14z"/>
<path d="M2320 2854 c1 -15 28 -46 33 -37 2 4 -4 17 -14 27 -11 11 -19 15 -19
10z"/>
<path d="M2398 2849 c-4 -10 1 -15 13 -16 10 -1 19 3 19 8 0 6 -4 8 -9 5 -5
-4 -11 -1 -13 6 -3 8 -6 7 -10 -3z"/>
<path d="M2010 2829 c0 -11 5 -17 10 -14 6 3 10 13 10 21 0 8 -4 14 -10 14 -5
0 -10 -9 -10 -21z"/>
<path d="M3910 2836 c0 -8 -5 -16 -12 -18 -6 -2 -9 -12 -5 -21 10 -28 22 -19
24 18 2 19 1 35 -2 35 -3 0 -5 -6 -5 -14z"/>
<path d="M2087 2820 c3 -11 7 -20 9 -20 2 0 4 9 4 20 0 11 -4 20 -9 20 -5 0
-7 -9 -4 -20z"/>
<path d="M2260 2831 c0 -5 5 -13 10 -16 6 -3 10 -2 10 4 0 5 -4 13 -10 16 -5
3 -10 2 -10 -4z"/>
<path d="M3985 2820 c3 -5 8 -10 11 -10 2 0 4 5 4 10 0 6 -5 10 -11 10 -5 0
-7 -4 -4 -10z"/>
<path d="M3853 2806 c-25 -12 -29 -21 -13 -31 6 -3 10 0 10 7 0 9 3 9 10 -2 5
-8 10 -10 11 -5 0 6 2 18 4 28 2 9 3 16 2 16 -1 -1 -12 -6 -24 -13z"/>
<path d="M3730 2800 c0 -5 5 -10 11 -10 5 0 7 5 4 10 -3 6 -8 10 -11 10 -2 0
-4 -4 -4 -10z"/>
<path d="M3770 2800 c-12 -7 -12 -12 -3 -21 10 -10 14 -9 19 5 8 22 2 27 -16
16z"/>
<path d="M3675 2780 c3 -5 8 -10 11 -10 2 0 4 5 4 10 0 6 -5 10 -11 10 -5 0
-7 -4 -4 -10z"/>
<path d="M3930 2786 c0 -2 7 -6 15 -10 8 -3 15 -1 15 4 0 6 -7 10 -15 10 -8 0
-15 -2 -15 -4z"/>
<path d="M2096 2771 c-4 -7 -5 -15 -2 -18 9 -9 19 4 14 18 -4 11 -6 11 -12 0z"/>
<path d="M2207 2773 c-10 -9 -9 -23 2 -23 5 0 11 7 15 15 5 15 -5 20 -17 8z"/>
<path d="M2240 2776 c0 -2 7 -7 16 -10 8 -3 12 -2 9 4 -6 10 -25 14 -25 6z"/>
<path d="M2865 2770 c3 -5 8 -10 11 -10 2 0 4 5 4 10 0 6 -5 10 -11 10 -5 0
-7 -4 -4 -10z"/>
<path d="M3708 2763 c7 -3 16 -2 19 1 4 3 -2 6 -13 5 -11 0 -14 -3 -6 -6z"/>
<path d="M2155 2750 c-3 -5 -1 -10 4 -10 6 0 11 5 11 10 0 6 -2 10 -4 10 -3 0
-8 -4 -11 -10z"/>
<path d="M2981 2744 c0 -11 3 -14 6 -6 3 7 2 16 -1 19 -3 4 -6 -2 -5 -13z"/>
<path d="M3805 2750 c3 -5 8 -10 11 -10 2 0 4 5 4 10 0 6 -5 10 -11 10 -5 0
-7 -4 -4 -10z"/>
<path d="M3870 2752 c0 -5 7 -13 16 -16 10 -4 14 -1 12 6 -5 15 -28 23 -28 10z"/>
<path d="M1696 2735 c-3 -8 -1 -15 4 -15 6 0 10 7 10 15 0 8 -2 15 -4 15 -2 0
-6 -7 -10 -15z"/>
<path d="M3730 2741 c0 -5 -8 -12 -17 -14 -14 -4 -12 -5 5 -6 13 -1 22 5 22
14 0 8 -2 15 -5 15 -3 0 -5 -4 -5 -9z"/>
<path d="M2205 2730 c-3 -5 1 -22 9 -37 13 -24 15 -25 16 -7 0 11 -6 26 -12
33 -11 11 -9 13 10 8 12 -3 20 -1 16 4 -7 12 -31 12 -39 -1z"/>
<path d="M1895 2710 c-3 -5 -1 -10 4 -10 6 0 11 5 11 10 0 6 -2 10 -4 10 -3 0
-8 -4 -11 -10z"/>
<path d="M3575 2710 c3 -5 11 -10 16 -10 6 0 7 5 4 10 -3 6 -11 10 -16 10 -6
0 -7 -4 -4 -10z"/>
<path d="M1940 2700 c0 -5 7 -10 15 -10 8 0 15 5 15 10 0 6 -7 10 -15 10 -8 0
-15 -4 -15 -10z"/>
<path d="M2060 2703 c0 -5 5 -15 10 -23 7 -12 9 -10 7 8 -1 19 -17 33 -17 15z"/>
<path d="M2277 2689 c7 -7 15 -10 18 -7 3 3 -2 9 -12 12 -14 6 -15 5 -6 -5z"/>
<path d="M3650 2685 c0 -8 5 -15 10 -15 6 0 10 7 10 15 0 8 -4 15 -10 15 -5 0
-10 -7 -10 -15z"/>
<path d="M2013 2683 c4 -3 5 -9 2 -13 -10 -16 13 -20 25 -5 8 9 8 15 2 15 -6
0 -16 2 -24 3 -7 2 -10 2 -5 0z"/>
<path d="M3595 2680 c3 -5 10 -10 16 -10 5 0 9 5 9 10 0 6 -7 10 -16 10 -8 0
-12 -4 -9 -10z"/>
<path d="M1945 2670 c-3 -5 -1 -10 4 -10 6 0 11 5 11 10 0 6 -2 10 -4 10 -3 0
-8 -4 -11 -10z"/>
<path d="M2383 2665 c0 -8 7 -15 15 -15 7 0 12 5 10 12 -6 18 -25 21 -25 3z"/>
<path d="M2136 2655 c4 -8 12 -15 20 -15 8 0 14 7 14 15 0 8 -9 15 -20 15 -13
0 -18 -5 -14 -15z"/>
<path d="M3498 2653 c7 -3 16 -2 19 1 4 3 -2 6 -13 5 -11 0 -14 -3 -6 -6z"/>
<path d="M2347 2643 c-10 -9 -9 -23 2 -23 5 0 11 7 15 15 5 15 -5 20 -17 8z"/>
<path d="M2077 2609 c13 -22 19 -26 21 -14 4 17 -15 45 -30 45 -5 0 -1 -14 9
-31z"/>
<path d="M2220 2609 c0 -18 2 -19 15 -5 8 8 15 17 15 20 0 3 -7 6 -15 6 -9 0
-15 -9 -15 -21z"/>
<path d="M3720 2610 c6 -11 13 -20 16 -20 2 0 0 9 -6 20 -6 11 -13 20 -16 20
-2 0 0 -9 6 -20z"/>
<path d="M3858 2624 c-8 -12 18 -54 33 -54 5 0 9 7 9 15 0 8 -6 15 -14 15 -8
0 -16 8 -18 18 -2 10 -6 13 -10 6z"/>
<path d="M2185 2610 c-3 -5 -1 -10 4 -10 6 0 11 5 11 10 0 6 -2 10 -4 10 -3 0
-8 -4 -11 -10z"/>
<path d="M3620 2605 c0 -9 6 -12 15 -9 8 4 12 10 9 15 -8 14 -24 10 -24 -6z"/>
<path d="M3660 2610 c0 -5 5 -10 11 -10 5 0 7 5 4 10 -3 6 -8 10 -11 10 -2 0
-4 -4 -4 -10z"/>
<path d="M2280 2591 c0 -25 6 -27 13 -6 4 8 2 17 -3 20 -6 4 -10 -3 -10 -14z"/>
<path d="M2337 2596 c-4 -10 1 -12 14 -9 23 6 24 9 5 16 -8 3 -17 0 -19 -7z"/>
<path d="M2060 2590 c0 -5 5 -10 11 -10 5 0 7 5 4 10 -3 6 -8 10 -11 10 -2 0
-4 -4 -4 -10z"/>
<path d="M2150 2590 c0 -6 -9 -10 -20 -10 -12 0 -20 -7 -20 -16 0 -13 3 -14
13 -5 11 8 18 6 32 -9 20 -22 55 -29 37 -7 -10 12 -12 18 -12 36 0 5 -7 11
-15 15 -8 3 -15 1 -15 -4z"/>
<path d="M3830 2590 c0 -5 5 -10 11 -10 5 0 7 5 4 10 -3 6 -8 10 -11 10 -2 0
-4 -4 -4 -10z"/>
<path d="M3558 2583 c-14 -4 -16 -8 -8 -24 14 -25 27 -24 35 1 4 11 11 18 16
15 5 -4 9 -1 9 4 0 11 -20 13 -52 4z"/>
<path d="M3640 2583 c0 -4 5 -15 10 -23 8 -13 10 -13 10 2 0 9 -4 20 -10 23
-5 3 -10 3 -10 -2z"/>
<path d="M2025 2570 c-3 -5 -2 -10 4 -10 5 0 13 5 16 10 3 6 2 10 -4 10 -5 0
-13 -4 -16 -10z"/>
<path d="M2060 2539 c0 -15 -4 -19 -19 -14 -23 7 -39 -13 -17 -21 8 -3 17 -12
20 -21 5 -11 2 -13 -9 -9 -9 3 -14 2 -10 -3 3 -5 -1 -11 -7 -14 -10 -3 -10 -7
1 -20 11 -14 11 -17 1 -17 -8 0 -10 -3 -6 -7 4 -5 14 0 21 11 17 22 35 13 34
-17 -1 -17 -2 -18 -6 -4 -6 22 -9 22 -36 -4 -18 -18 -19 -21 -4 -15 10 3 28
-1 39 -9 15 -10 26 -11 40 -4 14 7 27 6 50 -5 39 -20 38 -20 38 4 0 13 7 20
20 20 11 0 20 5 20 11 0 6 -7 9 -15 5 -9 -3 -15 0 -15 9 0 17 -26 20 -36 4 -3
-6 -1 -16 5 -22 6 -6 11 -16 11 -21 -1 -6 -9 -1 -19 12 -11 12 -25 21 -33 19
-7 -2 -10 -2 -5 0 4 3 7 11 7 19 0 8 4 14 10 14 22 0 -4 29 -28 32 -27 4 -27
4 11 27 36 22 44 40 20 48 -6 2 -19 -4 -28 -14 -10 -9 -24 -18 -32 -19 -12 -2
-12 1 1 15 21 23 20 31 -4 31 -14 0 -20 -7 -20 -21z m49 -115 c-13 -16 -29
-10 -29 11 0 8 7 11 20 8 16 -4 18 -8 9 -19z"/>
<path d="M2357 2540 c-3 -11 -1 -20 4 -20 5 0 9 9 9 20 0 11 -2 20 -4 20 -2 0
-6 -9 -9 -20z"/>
<path d="M3631 2529 c5 -11 14 -17 20 -14 15 10 10 22 -11 28 -17 4 -18 2 -9
-14z"/>
<path d="M2402 2525 c-11 -12 -10 -15 3 -15 8 0 15 7 15 15 0 18 -2 18 -18 0z"/>
<path d="M3520 2534 c0 -24 29 -38 55 -26 14 7 25 16 25 22 0 7 -10 5 -27 -4
-24 -12 -29 -12 -40 3 -7 9 -13 11 -13 5z"/>
<path d="M2250 2519 c0 -5 5 -7 10 -4 6 3 10 8 10 11 0 2 -4 4 -10 4 -5 0 -10
-5 -10 -11z"/>
<path d="M3440 2516 c0 -8 4 -17 9 -20 5 -4 7 3 4 14 -6 23 -13 26 -13 6z"/>
<path d="M2440 2510 c0 -5 7 -7 15 -4 8 4 15 8 15 10 0 2 -7 4 -15 4 -8 0 -15
-4 -15 -10z"/>
<path d="M2576 2505 c-3 -8 -1 -15 4 -15 6 0 10 7 10 15 0 8 -2 15 -4 15 -2 0
-6 -7 -10 -15z"/>
<path d="M3090 2509 c0 -5 5 -7 10 -4 6 3 10 8 10 11 0 2 -4 4 -10 4 -5 0 -10
-5 -10 -11z"/>
<path d="M2767 2503 c-4 -3 -7 -11 -7 -17 0 -6 5 -5 12 2 6 6 9 14 7 17 -3 3
-9 2 -12 -2z"/>
<path d="M2214 2488 c-3 -5 9 -8 25 -8 17 0 34 0 38 -1 4 0 9 4 11 10 4 11
-67 10 -74 -1z"/>
<path d="M2400 2490 c0 -5 5 -10 11 -10 5 0 7 5 4 10 -3 6 -8 10 -11 10 -2 0
-4 -4 -4 -10z"/>
<path d="M2369 2478 c-1 -2 -2 -15 -3 -29 -1 -18 2 -25 11 -22 9 4 11 0 7 -11
-3 -9 -2 -16 4 -16 12 0 37 58 28 67 -3 3 -6 -1 -6 -9 0 -11 -6 -14 -20 -11
-23 6 -26 19 -7 26 10 4 10 6 0 6 -7 1 -14 0 -14 -1z"/>
<path d="M2865 2471 c4 -8 2 -17 -6 -22 -11 -7 -9 -13 10 -28 15 -12 20 -20
12 -24 -8 -4 -8 -5 1 -3 21 4 20 24 -2 31 -17 5 -19 9 -9 21 10 12 9 17 -1 27
-10 9 -11 9 -5 -2z"/>
<path d="M2218 2454 c6 -3 12 -12 12 -20 0 -8 5 -14 11 -14 19 0 4 35 -16 37
-11 2 -14 0 -7 -3z"/>
<path d="M2921 2444 c0 -11 3 -14 6 -6 3 7 2 16 -1 19 -3 4 -6 -2 -5 -13z"/>
<path d="M3082 2421 c-10 -6 -10 -10 1 -20 12 -9 16 -8 20 3 7 19 -4 27 -21
17z"/>
<path d="M2626 2402 c-3 -5 1 -17 8 -27 12 -17 13 -17 11 3 -2 26 -11 37 -19
24z"/>
<path d="M1957 2387 c-2 -6 2 -18 9 -25 12 -11 14 -8 14 13 0 26 -14 34 -23
12z"/>
<path d="M3267 2383 c-4 -3 -7 -11 -7 -17 0 -6 5 -5 12 2 6 6 9 14 7 17 -3 3
-9 2 -12 -2z"/>
<path d="M2256 2365 c-3 -8 -1 -15 4 -15 6 0 10 7 10 15 0 8 -2 15 -4 15 -2 0
-6 -7 -10 -15z"/>
<path d="M2300 2372 c0 -12 19 -26 26 -19 2 2 -2 10 -11 17 -9 8 -15 8 -15 2z"/>
<path d="M2394 2369 c-3 -6 -17 -8 -30 -5 -13 4 -24 2 -24 -3 0 -5 -3 -18 -6
-28 -5 -17 -5 -17 6 0 8 12 18 15 37 11 16 -4 28 -2 33 7 6 9 8 2 8 -19 -1
-39 -36 -76 -58 -61 -11 8 -12 12 -2 16 6 2 12 9 12 14 0 6 -7 6 -17 1 -10 -5
-25 -7 -33 -5 -12 4 -12 3 -1 -5 9 -7 10 -12 2 -16 -19 -12 -1 -26 25 -20 21
5 24 3 24 -20 0 -19 7 -29 25 -36 14 -5 25 -14 25 -20 0 -14 27 -13 36 2 5 7
2 9 -9 5 -8 -3 -18 0 -20 7 -3 8 4 11 24 8 17 -3 29 0 29 7 0 10 -27 15 -67
14 -14 -1 -17 16 -7 41 3 9 10 13 15 10 5 -3 12 2 15 10 3 9 10 14 14 11 5 -3
6 4 3 15 -3 11 -10 17 -17 13 -6 -3 -6 0 2 8 17 19 15 24 -13 37 -17 8 -26 8
-31 1z"/>
<path d="M3191 2371 c-8 -5 -9 -11 -3 -15 5 -3 12 1 16 9 6 17 6 18 -13 6z"/>
<path d="M2763 2359 c3 -9 -3 -23 -14 -33 -24 -20 -33 -21 -25 -1 3 9 0 15 -8
15 -18 0 -14 -29 5 -41 20 -12 32 -11 23 3 -5 8 -2 9 9 5 10 -3 17 -3 18 1 0
4 2 14 4 23 1 9 -2 23 -7 30 -8 11 -9 11 -5 -2z"/>
<path d="M3049 2351 c-6 -17 -39 -24 -39 -8 0 7 -5 4 -11 -6 -8 -14 -14 -15
-32 -7 -21 11 -21 11 -3 -4 23 -19 36 -20 36 -4 0 6 9 3 20 -7 11 -10 23 -15
27 -12 3 4 0 7 -8 7 -10 1 -9 5 5 15 10 7 16 20 14 27 -4 10 -6 10 -9 -1z"/>
<path d="M3515 2350 c-3 -5 -1 -10 4 -10 6 0 11 5 11 10 0 6 -2 10 -4 10 -3 0
-8 -4 -11 -10z"/>
<path d="M2840 2346 c0 -2 7 -7 16 -10 8 -3 12 -2 9 4 -6 10 -25 14 -25 6z"/>
<path d="M3067 2330 c-3 -12 0 -20 7 -20 6 0 12 9 12 20 0 11 -3 20 -7 20 -4
0 -9 -9 -12 -20z"/>
<path d="M2284 2329 c-8 -14 14 -19 25 -6 8 10 7 14 -5 14 -8 0 -17 -4 -20 -8z"/>
<path d="M2550 2333 c0 -6 -7 -10 -16 -9 -9 0 -19 -6 -22 -14 -4 -13 -3 -13
10 -2 14 11 19 9 33 -10 l16 -23 -7 30 c-7 32 -14 45 -14 28z"/>
<path d="M2805 2329 c-10 -15 1 -23 20 -15 9 3 13 10 10 16 -8 13 -22 13 -30
-1z"/>
<path d="M2380 2315 c0 -8 5 -15 10 -15 6 0 10 7 10 15 0 8 -4 15 -10 15 -5 0
-10 -7 -10 -15z"/>
<path d="M2481 2312 c-6 -12 -11 -31 -11 -43 0 -19 -2 -20 -16 -8 -14 12 -16
11 -13 -5 2 -10 15 -23 27 -27 20 -7 25 -5 29 11 3 11 14 20 24 20 12 0 19 7
19 20 0 24 -13 26 -35 4 -21 -21 -33 -9 -16 17 7 12 10 23 8 26 -3 3 -10 -4
-16 -15z"/>
<path d="M2636 2315 c-3 -8 -1 -15 4 -15 6 0 10 7 10 15 0 8 -2 15 -4 15 -2 0
-6 -7 -10 -15z"/>
<path d="M2705 2280 c3 -5 11 -10 16 -10 6 0 7 5 4 10 -3 6 -11 10 -16 10 -6
0 -7 -4 -4 -10z"/>
<path d="M3228 2283 c7 -3 16 -2 19 1 4 3 -2 6 -13 5 -11 0 -14 -3 -6 -6z"/>
<path d="M2636 2261 c-11 -12 -14 -21 -7 -26 6 -3 11 -3 11 2 0 4 4 3 8 -4 12
-20 35 2 27 26 -8 26 -17 26 -39 2z"/>
<path d="M2786 2264 c-10 -26 -6 -30 9 -11 13 18 15 17 31 -15 12 -22 19 -28
22 -18 3 7 0 16 -6 18 -7 2 -12 10 -12 17 0 7 -7 16 -16 19 -21 8 -21 8 -28
-10z"/>
<path d="M2980 2265 c-14 -16 -10 -18 14 -9 9 3 16 10 16 15 0 14 -16 11 -30
-6z"/>
<path d="M2588 2263 c7 -3 16 -2 19 1 4 3 -2 6 -13 5 -11 0 -14 -3 -6 -6z"/>
<path d="M2540 2240 c-13 -8 -12 -10 3 -10 9 0 17 5 17 10 0 12 -1 12 -20 0z"/>
<path d="M2330 2229 c0 -5 5 -7 10 -4 6 3 10 8 10 11 0 2 -4 4 -10 4 -5 0 -10
-5 -10 -11z"/>
<path d="M2628 2186 c-2 -23 0 -32 8 -29 7 2 9 13 7 24 -4 15 -2 18 13 12 17
-6 17 -5 5 10 -20 25 -28 21 -33 -17z"/>
<path d="M2490 2170 c0 -19 3 -21 12 -12 9 9 9 15 0 24 -9 9 -12 7 -12 -12z"/>
<path d="M2535 2170 c-3 -6 1 -7 9 -4 18 7 21 14 7 14 -6 0 -13 -4 -16 -10z"/>
<path d="M2444 2091 c0 -11 4 -17 8 -15 4 3 8 12 8 20 0 8 -4 14 -8 14 -4 0
-8 -9 -8 -19z"/>
<path d="M4280 3729 c0 -5 5 -7 10 -4 6 3 10 8 10 11 0 2 -4 4 -10 4 -5 0 -10
-5 -10 -11z"/>
<path d="M2298 1973 c7 -3 16 -2 19 1 4 3 -2 6 -13 5 -11 0 -14 -3 -6 -6z"/>
<path d="M858 4158 c-15 -12 -17 -102 -25 -1163 -9 -1323 -9 -1779 0 -1816 7
-27 61 -59 75 -45 12 12 20 856 18 1976 l-1 1055 -25 3 c-14 2 -33 -3 -42 -10z"/>
</g>
</svg>
